<?xml version="1.0" encoding="iso-8859-1"?>
<!-- Generator: Adobe Illustrator 27.5.0, SVG Export Plug-In . SVG Version: 6.00 Build 0)  -->
<svg version="1.1" id="Layer_1" xmlns="http://www.w3.org/2000/svg" xmlns:xlink="http://www.w3.org/1999/xlink" x="0px" y="0px"
	 viewBox="0 0 704.87 595.28" style="enable-background:new 0 0 704.87 595.28;" xml:space="preserve">
<style type="text/css">
	.st0{fill:#FFF200;}
	.st1{fill:#C49A6C;}
	.st2{fill:#FFFFFF;}
</style>
<g>
	<path d="M180.14,125.07c0.33,0.21,0.38,0.49,0.34,0.87c-0.33,2.61-0.63,5.22-0.94,7.83c-0.29,2.42-0.59,4.85-0.88,7.27
		c-0.26,2.18-0.51,4.35-0.78,6.53c-0.26,2.2-0.53,4.4-0.8,6.6c-0.21,1.78-0.42,3.56-0.63,5.33c-0.01,0.1-0.02,0.2-0.05,0.3
		c-0.08,0.33-0.32,0.52-0.61,0.48c-0.29-0.04-0.5-0.29-0.47-0.62c0.1-0.95,0.21-1.89,0.33-2.84c0.24-2,0.48-4,0.72-6.01
		c0.27-2.21,0.53-4.43,0.8-6.64c0.24-1.98,0.47-3.95,0.71-5.93c0.24-1.98,0.47-3.95,0.71-5.93c0.24-1.99,0.48-3.98,0.72-5.97
		c0.03-0.25,0.02-0.51,0.1-0.74c0.07-0.2,0.23-0.36,0.36-0.54C179.89,125.07,180.01,125.07,180.14,125.07z"/>
	<path d="M167.19,125.07c0.28,0.16,0.36,0.4,0.39,0.71c0.26,3.2,0.53,6.39,0.8,9.59c0.22,2.61,0.42,5.22,0.63,7.83
		c0.26,3.21,0.54,6.42,0.8,9.63c0.18,2.16,0.35,4.32,0.53,6.48c0.01,0.15,0.02,0.3,0.02,0.45c-0.01,0.32-0.21,0.49-0.49,0.52
		c-0.29,0.03-0.52-0.12-0.57-0.43c-0.07-0.45-0.1-0.9-0.14-1.35c-0.3-3.65-0.6-7.29-0.9-10.94c-0.19-2.3-0.36-4.6-0.55-6.89
		c-0.24-2.88-0.49-5.77-0.72-8.65c-0.17-2.1-0.34-4.2-0.51-6.29c-0.03-0.31,0.14-0.49,0.35-0.66
		C166.94,125.07,167.06,125.07,167.19,125.07z"/>
	<path d="M115.54,171.8c0.19-0.36,0.47-0.42,0.85-0.34c6.34,1.32,12.69,2.64,19.03,3.96c4.41,0.92,8.82,1.84,13.23,2.76
		c0.28,0.06,0.5,0.16,0.55,0.47c0.06,0.41-0.22,0.7-0.66,0.62c-0.94-0.17-1.87-0.37-2.8-0.56c-4.64-0.97-9.28-1.94-13.92-2.9
		c-5.22-1.09-10.44-2.17-15.65-3.26c-0.22-0.05-0.42-0.24-0.63-0.36C115.54,172.05,115.54,171.93,115.54,171.8z"/>
	<path d="M211.63,185.2c0.07-0.48,0.13-0.53,0.53-0.36c0.34,0.15,0.66,0.35,0.99,0.53c0.15,0.08,0.3,0.18,0.46,0.23
		c0.55,0.18,0.55,0.17,0.67-0.38c0.05-0.23,0.16-0.35,0.4-0.37c0.36-0.03,0.73-0.02,1.01-0.31c0.06-0.06,0.23-0.08,0.32-0.05
		c0.46,0.15,0.92,0.28,1.35,0.48c0.56,0.26,1.09,0.58,1.62,0.89c0.21,0.12,0.32,0.02,0.43-0.14c0.23-0.35,0.35-0.35,0.66-0.08
		c0.11,0.1,0.26,0.15,0.39,0.22c0.23,0.14,0.46,0.28,0.65,0.5c-32.17,0-64.34,0-96.57,0c0.56-0.44,1-0.89,1.77-0.82
		c0.96,0.09,1.93,0.03,2.9,0.05c0.9,0.02,1.77-0.1,2.64-0.33c0.68-0.18,1.4-0.3,2.1-0.35c0.86-0.06,1.66-0.23,2.37-0.71
		c0.17-0.11,0.36-0.19,0.52-0.31c1-0.74,2.11-0.61,3.21-0.38c0.82,0.17,1.62,0.33,2.39-0.16c0.26-0.17,0.5-0.12,0.71,0.09
		c0.15,0.15,0.28,0.32,0.42,0.49c0.7-0.94,1.58-0.77,2.45-0.57c0.3,0.07,0.53,0.12,0.71-0.22c0.14-0.25,0.41-0.24,0.64-0.13
		c0.38,0.19,0.74,0.13,1.13,0.02c0.6-0.16,1.22-0.29,1.82-0.43c0.3-0.07,0.53-0.2,0.62-0.53c0.04-0.15,0.11-0.34,0.22-0.43
		c0.51-0.4,0.53-0.98,0.64-1.54c1.26-5.98,4.47-10.64,9.6-13.93c3.82-2.45,8.05-3.55,12.56-3.25c7.35,0.49,13.04,3.91,17.04,10.09
		c1.51,2.33,2.45,4.89,2.91,7.63c0.01,0.03,0.03,0.06,0.07,0.13c0.07-0.39,0.14-0.74,0.21-1.1c0.07-0.33,0.25-0.46,0.61-0.47
		c0.32-0.01,0.64-0.15,0.96-0.2c0.09-0.02,0.24,0.03,0.29,0.1c0.32,0.45,0.62,0.9,0.91,1.37c0.13,0.2,0.21,0.43,0.35,0.72
		c0.56-0.05,1.2-0.11,1.84-0.18c2.58-0.27,5.16-0.54,7.74-0.81c2.49-0.26,4.98-0.54,7.48-0.8c2.26-0.24,4.51-0.47,6.77-0.7
		c1.33-0.14,2.67-0.29,4-0.43c0.15-0.02,0.3-0.02,0.45-0.02c0.33,0,0.52,0.17,0.55,0.49c0.02,0.32-0.14,0.54-0.47,0.58
		c-0.86,0.1-1.72,0.19-2.58,0.29c-2.07,0.22-4.14,0.44-6.21,0.66c-2.02,0.21-4.04,0.42-6.06,0.63c-2.27,0.24-4.54,0.48-6.8,0.72
		c-1.78,0.19-3.56,0.37-5.35,0.56c-0.52,0.05-1.04,0.09-1.59,0.13c-0.05,0.31-0.05,0.67,0.28,0.95c0.04,0.03,0.08,0.07,0.09,0.12
		c0.17,0.52,0.5,0.78,1.05,0.97c0.51,0.17,0.96,0.25,1.45,0.09c0.27-0.09,0.54-0.2,0.81-0.29c0.25-0.08,0.25-0.25,0.21-0.45
		c-0.06-0.26,0.05-0.35,0.3-0.39c0.77-0.11,1.17,0.08,1.61,0.79c0.02,0.03,0.06,0.07,0.05,0.09c-0.13,0.43,0.2,0.44,0.46,0.49
		c0.58,0.12,1.14,0.28,1.59,0.71c0.24,0.22,0.47,0.17,0.78,0.01c0.64-0.32,1.18-0.97,2.03-0.69c0.63-0.3,1.12,0.11,1.64,0.34
		c0.22,0.1,0.48,0.13,0.72,0.14C210.66,185.22,211.13,185.2,211.63,185.2z M192.76,181.6c-0.03-0.21-0.04-0.38-0.07-0.54
		c-0.93-5.24-3.46-9.53-7.7-12.74c-4.81-3.64-10.25-4.87-16.16-3.7c-5.21,1.03-9.35,3.8-12.45,8.11c-1.7,2.36-2.79,5-3.34,7.85
		c-0.03,0.13-0.08,0.33-0.02,0.39c0.39,0.36,0.76,0.77,1.22,1.02c0.68,0.38,1.43,0.66,2.15,0.95c0.21,0.09,0.46,0.14,0.68,0.14
		c0.88-0.01,1.75-0.06,2.62-0.07c0.46,0,0.92,0.05,1.39,0.07c0.23,0.01,0.39-0.08,0.37-0.35c-0.06-0.98,0.27-1.87,0.63-2.76
		c0.14-0.36,0.35-0.62,0.77-0.67c0.24-0.03,0.48-0.13,0.71-0.23c0.37-0.17,0.73-0.21,1.13-0.14c0.21,0.04,0.35,0.09,0.38,0.32
		c0.02,0.16,0.08,0.32,0.15,0.46c0.44,0.97,1.35,1.14,1.82,0.23c0.34-0.65,0.69-0.72,1.28-0.62c0.22,0.04,0.39,0.06,0.52,0.27
		c0.4,0.66,0.94,1.19,1.64,1.53c0.33-0.53,0.33-0.53,0.91-0.79c0.06-0.03,0.11-0.06,0.15-0.11c0.28-0.29,0.49-0.28,0.79-0.02
		c0.18,0.15,0.41,0.28,0.63,0.33c0.47,0.09,0.9,0.22,1.15,0.68c0.08,0.14,0.21,0.25,0.31,0.37c0.03-0.01,0.06-0.03,0.08-0.04
		c0.02-0.38,0.05-0.76,0.07-1.15c0.34-0.06,0.73-0.02,0.6-0.62c0.24,0.08,0.44,0.09,0.56,0.2c0.27,0.25,0.49,0.56,0.76,0.82
		c0.16,0.15,0.39,0.34,0.58,0.34c0.46-0.01,0.62,0.21,0.69,0.6c0.01,0.07,0.04,0.15,0.07,0.21c0.18,0.36,0.52,0.42,0.86,0.41
		c0.32-0.01,0.52-0.18,0.61-0.51c0.04-0.13,0.2-0.26,0.34-0.31c0.28-0.1,0.53-0.17,0.39-0.57c-0.03-0.07,0.04-0.23,0.1-0.26
		c0.49-0.24,0.97-0.58,1.53-0.17c0.09,0.06,0.21,0.09,0.32,0.1c0.83,0.07,1.22,0.57,1.38,1.34c0.05,0.27,0.21,0.51,0.33,0.79
		c0.17-0.16,0.28-0.26,0.39-0.35c0.37,0.52,0.53,0.57,0.94,0.34c-0.03-0.12-0.05-0.23-0.08-0.37c0.51-0.13,1-0.26,0.87-0.96
		c0.27-0.05,0.51-0.07,0.73-0.14c0.54-0.19,1.26,0.07,1.59-0.63c0.01-0.01,0.05-0.01,0.1-0.02c0.11,0.18,0.23,0.36,0.37,0.57
		c0.52-0.33,1.07-0.14,1.48,0.13c0.57,0.38,1.04,0.92,1.55,1.39c0.08,0.08,0.21,0.17,0.3,0.16c0.21-0.03,0.57-0.64,0.5-0.85
		C192.37,181.75,192.4,181.58,192.76,181.6z"/>
	<path d="M137.3,134.09c0.21,0.18,0.4,0.3,0.52,0.47c1.45,1.98,2.9,3.97,4.35,5.95c4.74,6.5,9.48,13,14.22,19.51
		c0.86,1.18,1.73,2.37,2.59,3.55c0.25,0.35,0.23,0.7-0.04,0.9c-0.29,0.21-0.59,0.12-0.86-0.25c-6.24-8.56-12.47-17.12-18.71-25.67
		c-0.83-1.13-1.66-2.26-2.47-3.41c-0.11-0.16-0.14-0.45-0.08-0.65C136.86,134.33,137.1,134.24,137.3,134.09z"/>
	<path d="M127.99,144.11c0.22,0.14,0.39,0.23,0.52,0.35c2.73,2.43,5.45,4.86,8.17,7.29c5.82,5.19,11.64,10.39,17.46,15.58
		c0.07,0.07,0.15,0.13,0.22,0.2c0.37,0.34,0.42,0.63,0.16,0.9c-0.24,0.26-0.55,0.23-0.92-0.1c-0.46-0.41-0.92-0.82-1.38-1.22
		c-5.84-5.21-11.67-10.42-17.51-15.63c-2.29-2.05-4.58-4.09-6.87-6.14c-0.23-0.21-0.52-0.43-0.33-0.79
		C127.61,144.38,127.81,144.27,127.99,144.11z"/>
	<path d="M187.08,164.68c-0.21-0.16-0.44-0.24-0.47-0.38c-0.05-0.2-0.04-0.49,0.07-0.65c0.67-0.98,1.38-1.94,2.07-2.91
		c6.03-8.39,12.05-16.78,18.08-25.17c0.07-0.09,0.13-0.19,0.2-0.27c0.22-0.25,0.52-0.3,0.76-0.12c0.24,0.18,0.3,0.49,0.11,0.77
		c-0.29,0.43-0.59,0.84-0.89,1.26c-5.68,7.91-11.36,15.82-17.04,23.73c-0.78,1.08-1.54,2.16-2.33,3.23
		C187.5,164.36,187.29,164.49,187.08,164.68z"/>
	<path d="M195.06,128.78c-0.02,0.07-0.06,0.22-0.11,0.36c-3.06,7.78-6.12,15.55-9.19,23.33c-1.14,2.9-2.28,5.8-3.43,8.69
		c-0.1,0.26-0.19,0.53-0.52,0.57c-0.46,0.06-0.74-0.33-0.56-0.82c0.36-0.94,0.72-1.87,1.09-2.8c3.86-9.8,7.72-19.6,11.59-29.4
		c0.08-0.21,0.27-0.43,0.47-0.52C194.71,128.04,195.05,128.35,195.06,128.78z"/>
	<path d="M120.37,156.68c0.13,0.06,0.3,0.11,0.45,0.19c5.34,2.78,10.69,5.56,16.03,8.35c4.6,2.39,9.2,4.79,13.8,7.18
		c0.07,0.03,0.13,0.07,0.2,0.1c0.4,0.21,0.53,0.5,0.38,0.81c-0.16,0.32-0.47,0.38-0.87,0.17c-0.96-0.49-1.91-0.99-2.87-1.48
		c-6.12-3.19-12.24-6.37-18.36-9.56c-2.94-1.53-5.89-3.07-8.83-4.6c-0.27-0.14-0.51-0.28-0.47-0.64
		C119.85,156.88,120.06,156.76,120.37,156.68z"/>
	<path d="M191.52,168.71c-0.17-0.15-0.36-0.26-0.46-0.42c-0.15-0.25-0.03-0.48,0.18-0.66c0.62-0.53,1.23-1.07,1.85-1.6
		c7.37-6.33,14.75-12.65,22.12-18.98c0.45-0.38,0.89-0.77,1.34-1.15c0.34-0.29,0.67-0.3,0.89-0.04c0.22,0.26,0.16,0.6-0.17,0.88
		c-3.08,2.65-6.17,5.29-9.25,7.93c-4.8,4.11-9.59,8.23-14.39,12.34c-0.54,0.47-1.08,0.94-1.63,1.39
		C191.88,168.52,191.72,168.59,191.52,168.71z"/>
	<path d="M224.79,157.98c0.01,0.32-0.21,0.45-0.45,0.58c-1.91,0.98-3.81,1.96-5.71,2.94c-7.68,3.96-15.36,7.92-23.04,11.88
		c-0.14,0.07-0.28,0.16-0.44,0.22c-0.3,0.1-0.55,0.03-0.7-0.26c-0.15-0.3-0.05-0.54,0.21-0.71c0.25-0.16,0.53-0.29,0.8-0.42
		c9.34-4.81,18.68-9.63,28.02-14.44c0.19-0.1,0.38-0.2,0.57-0.28C224.41,157.34,224.78,157.59,224.79,157.98z"/>
	<path d="M151.41,131.39c0.3,0.01,0.45,0.21,0.57,0.49c0.6,1.41,1.2,2.81,1.8,4.21c3.29,7.66,6.57,15.31,9.86,22.97
		c0.24,0.56,0.48,1.13,0.72,1.69c0.2,0.47,0.13,0.8-0.2,0.94c-0.35,0.14-0.61-0.02-0.82-0.5c-1.89-4.42-3.79-8.83-5.68-13.25
		c-2.24-5.22-4.48-10.44-6.72-15.66C150.75,131.82,150.96,131.4,151.41,131.39z"/>
	<path d="M228.47,171.25c-0.01,0.32-0.23,0.47-0.54,0.55c-1.13,0.27-2.26,0.55-3.39,0.83c-5.51,1.34-11.01,2.69-16.52,4.03
		c-3.6,0.88-7.2,1.75-10.79,2.63c-0.4,0.1-0.69-0.05-0.76-0.38c-0.08-0.34,0.11-0.59,0.52-0.69c7.55-1.84,15.1-3.68,22.65-5.52
		c2.69-0.65,5.37-1.31,8.06-1.97C228.13,170.61,228.46,170.83,228.47,171.25z"/>
	<path d="M184.47,163c-0.43-0.01-0.67-0.43-0.46-0.84c0.32-0.62,0.66-1.24,0.98-1.86c4.06-7.63,8.12-15.26,12.18-22.89
		c0.08-0.16,0.21-0.37,0.35-0.41c0.19-0.05,0.51-0.01,0.6,0.11c0.12,0.16,0.15,0.49,0.07,0.67c-0.31,0.68-0.69,1.34-1.04,2
		c-4,7.52-7.99,15.04-11.99,22.56C185.01,162.63,184.91,163,184.47,163z"/>
	<path d="M189.31,166.47c-0.07-0.06-0.25-0.16-0.36-0.31c-0.16-0.23-0.06-0.46,0.11-0.65c0.49-0.55,0.99-1.1,1.48-1.65
		c3.98-4.41,7.95-8.83,11.93-13.24c1.76-1.96,3.52-3.91,5.29-5.87c0.08-0.08,0.15-0.17,0.23-0.24c0.25-0.21,0.51-0.21,0.74,0.01
		c0.24,0.22,0.25,0.5,0.05,0.74c-0.37,0.44-0.76,0.86-1.15,1.29c-5.81,6.46-11.63,12.91-17.44,19.36
		C189.97,166.14,189.82,166.47,189.31,166.47z"/>
	<path d="M217.4,154.8c-0.09,0.1-0.23,0.31-0.42,0.44c-2,1.36-4.01,2.71-6.01,4.07c-5.65,3.81-11.31,7.62-16.96,11.44
		c-0.06,0.04-0.12,0.09-0.19,0.13c-0.36,0.23-0.67,0.21-0.87-0.06c-0.2-0.27-0.1-0.62,0.25-0.86c1.88-1.27,3.76-2.54,5.64-3.81
		c5.8-3.91,11.6-7.82,17.4-11.73c0.12-0.08,0.25-0.18,0.38-0.24C216.99,154.01,217.39,154.27,217.4,154.8z"/>
	<path d="M196.22,176.41c-0.37,0-0.57-0.16-0.62-0.45c-0.06-0.3,0.1-0.51,0.38-0.61c0.68-0.25,1.36-0.5,2.04-0.75
		c8.07-2.94,16.13-5.87,24.2-8.81c0.57-0.21,0.88-0.14,1.02,0.23c0.13,0.35-0.06,0.61-0.62,0.81c-8.68,3.16-17.35,6.31-26.03,9.47
		C196.45,176.34,196.31,176.38,196.22,176.41z"/>
	<path d="M137.31,144.23c0.23,0.18,0.42,0.29,0.56,0.45c2.15,2.38,4.3,4.77,6.45,7.15c4.06,4.51,8.12,9.02,12.18,13.53
		c0.05,0.06,0.1,0.11,0.15,0.17c0.21,0.27,0.19,0.57-0.03,0.78c-0.23,0.22-0.56,0.2-0.8-0.06c-0.74-0.81-1.48-1.64-2.22-2.46
		c-4-4.44-8.01-8.88-12.01-13.33c-1.54-1.7-3.07-3.41-4.6-5.12c-0.18-0.2-0.31-0.43-0.16-0.67
		C136.92,144.51,137.12,144.4,137.31,144.23z"/>
	<path d="M152.92,170.41c-0.15,0.22-0.22,0.45-0.36,0.49c-0.2,0.06-0.49,0.06-0.66-0.04c-0.82-0.51-1.61-1.07-2.41-1.61
		c-6.93-4.67-13.86-9.35-20.79-14.02c-0.04-0.03-0.08-0.05-0.13-0.08c-0.32-0.24-0.4-0.53-0.21-0.81c0.18-0.27,0.51-0.31,0.83-0.1
		c0.61,0.4,1.21,0.81,1.81,1.22c7.13,4.81,14.26,9.62,21.38,14.43C152.58,170.01,152.72,170.21,152.92,170.41z"/>
	<path d="M148.07,136.92c0.09,0.09,0.3,0.23,0.4,0.43c0.96,1.77,1.9,3.56,2.84,5.34c3.4,6.4,6.81,12.8,10.21,19.2
		c0.05,0.09,0.1,0.18,0.14,0.27c0.15,0.32,0.06,0.62-0.22,0.77c-0.28,0.15-0.58,0.06-0.75-0.27c-0.58-1.08-1.16-2.16-1.73-3.25
		c-3.8-7.15-7.61-14.3-11.41-21.45c-0.05-0.1-0.11-0.2-0.15-0.3C147.28,137.28,147.53,136.92,148.07,136.92z"/>
	<path d="M178.88,160.82c-0.44-0.01-0.66-0.3-0.55-0.74c0.27-1.15,0.56-2.31,0.85-3.46c1.58-6.32,3.15-12.64,4.73-18.95
		c0.4-1.61,0.8-3.23,1.21-4.84c0.1-0.4,0.36-0.6,0.68-0.53c0.34,0.07,0.48,0.38,0.38,0.8c-2.24,9.01-4.49,18.03-6.73,27.04
		C179.36,160.48,179.28,160.82,178.88,160.82z"/>
	<path d="M150.09,175.82c0.02,0.41-0.38,0.67-0.83,0.51c-1.19-0.42-2.38-0.86-3.56-1.29c-7.57-2.76-15.14-5.51-22.71-8.27
		c-0.16-0.06-0.33-0.13-0.45-0.25c-0.18-0.19-0.19-0.43-0.03-0.65c0.18-0.25,0.43-0.29,0.7-0.19c0.6,0.22,1.2,0.43,1.8,0.65
		c8.18,2.98,16.36,5.96,24.55,8.94C149.83,175.36,150.05,175.5,150.09,175.82z"/>
	<path d="M147.98,182.26c-1.53-0.16-3.07-0.32-4.6-0.48c-2.07-0.22-4.14-0.43-6.21-0.65c-2.28-0.24-4.56-0.49-6.84-0.73
		c-2.02-0.21-4.04-0.42-6.06-0.63c-1.42-0.15-2.84-0.3-4.26-0.45c-0.35-0.04-0.56-0.29-0.53-0.61c0.03-0.33,0.31-0.53,0.67-0.49
		c3.05,0.32,6.1,0.64,9.16,0.96c3.45,0.37,6.9,0.74,10.35,1.1c2.75,0.29,5.51,0.57,8.26,0.86c0.05,0.01,0.1,0.01,0.15,0.02
		c0.43,0.06,0.65,0.28,0.63,0.6C148.7,182.11,148.44,182.28,147.98,182.26z"/>
	<path d="M159.94,132.28c0.4,0.02,0.55,0.23,0.63,0.54c0.37,1.49,0.75,2.98,1.12,4.48c1.72,6.9,3.44,13.8,5.16,20.7
		c0.17,0.68,0.34,1.36,0.5,2.04c0.1,0.41-0.05,0.69-0.38,0.77c-0.33,0.07-0.59-0.12-0.69-0.52c-1.15-4.61-2.3-9.22-3.45-13.83
		c-1.1-4.4-2.2-8.81-3.3-13.21c-0.07-0.29-0.18-0.6,0.12-0.83C159.74,132.35,159.86,132.32,159.94,132.28z"/>
	<path d="M173.38,145.43c0,4.58,0,9.15,0,13.73c0,0.16,0.01,0.33-0.02,0.49c-0.05,0.29-0.24,0.43-0.53,0.43
		c-0.29,0-0.48-0.14-0.53-0.43c-0.02-0.1-0.01-0.2-0.01-0.3c0-9.23,0-18.46,0-27.69c0-0.15-0.01-0.3,0.01-0.45
		c0.02-0.3,0.26-0.52,0.55-0.5c0.3,0.02,0.49,0.18,0.52,0.49c0.02,0.19,0.01,0.38,0.01,0.56
		C173.38,136.32,173.38,140.88,173.38,145.43z"/>
	<path class="st0" d="M192.76,181.6c-0.36-0.01-0.39,0.16-0.3,0.43c0.07,0.2-0.3,0.82-0.5,0.85c-0.09,0.01-0.22-0.08-0.3-0.16
		c-0.52-0.47-0.98-1.01-1.55-1.39c-0.41-0.27-0.96-0.46-1.48-0.13c-0.13-0.21-0.25-0.39-0.37-0.57c-0.06,0.01-0.1,0-0.1,0.02
		c-0.34,0.7-1.05,0.44-1.59,0.63c-0.22,0.08-0.46,0.09-0.73,0.14c0.13,0.7-0.36,0.83-0.87,0.96c0.03,0.14,0.06,0.25,0.08,0.37
		c-0.41,0.23-0.57,0.18-0.94-0.34c-0.11,0.1-0.21,0.2-0.39,0.35c-0.12-0.28-0.28-0.53-0.33-0.79c-0.16-0.77-0.55-1.27-1.38-1.34
		c-0.11-0.01-0.23-0.04-0.32-0.1c-0.56-0.41-1.05-0.07-1.53,0.17c-0.06,0.03-0.13,0.19-0.1,0.26c0.15,0.39-0.11,0.46-0.39,0.57
		c-0.14,0.05-0.3,0.19-0.34,0.31c-0.09,0.33-0.3,0.5-0.61,0.51c-0.34,0.01-0.68-0.05-0.86-0.41c-0.03-0.07-0.06-0.14-0.07-0.21
		c-0.07-0.39-0.23-0.61-0.69-0.6c-0.19,0.01-0.42-0.19-0.58-0.34c-0.27-0.25-0.49-0.57-0.76-0.82c-0.12-0.11-0.33-0.12-0.56-0.2
		c0.13,0.6-0.26,0.57-0.6,0.62c-0.02,0.38-0.05,0.77-0.07,1.15c-0.03,0.01-0.06,0.03-0.08,0.04c-0.11-0.12-0.24-0.23-0.31-0.37
		c-0.25-0.46-0.67-0.59-1.15-0.68c-0.22-0.04-0.45-0.18-0.63-0.33c-0.3-0.25-0.51-0.27-0.79,0.02c-0.04,0.04-0.1,0.08-0.15,0.11
		c-0.58,0.26-0.58,0.26-0.91,0.79c-0.71-0.34-1.24-0.86-1.64-1.53c-0.13-0.22-0.29-0.23-0.52-0.27c-0.6-0.1-0.95-0.02-1.28,0.62
		c-0.47,0.91-1.38,0.74-1.82-0.23c-0.07-0.15-0.13-0.3-0.15-0.46c-0.03-0.24-0.16-0.29-0.38-0.32c-0.4-0.07-0.77-0.02-1.13,0.14
		c-0.23,0.1-0.47,0.2-0.71,0.23c-0.43,0.05-0.63,0.32-0.77,0.67c-0.36,0.89-0.69,1.78-0.63,2.76c0.02,0.27-0.14,0.36-0.37,0.35
		c-0.46-0.02-0.93-0.08-1.39-0.07c-0.88,0.01-1.75,0.06-2.62,0.07c-0.23,0-0.47-0.05-0.68-0.14c-0.73-0.3-1.47-0.57-2.15-0.95
		c-0.46-0.25-0.83-0.66-1.22-1.02c-0.06-0.06-0.01-0.26,0.02-0.39c0.55-2.86,1.64-5.49,3.34-7.85c3.1-4.31,7.24-7.08,12.45-8.11
		c5.91-1.17,11.35,0.06,16.16,3.7c4.24,3.21,6.78,7.5,7.7,12.74C192.72,181.22,192.73,181.38,192.76,181.6z"/>
</g>
<g>
	<path d="M60.06,212.57c-1.38-2.07-1.11-3.31,1.09-4.73c0.4-0.26,0.85-0.45,1.25-0.66c-1.15-0.57-2.32-1.13-3.49-1.72
		c-0.27-0.14-0.52-0.33-0.76-0.51c-1.23-0.91-1.33-1.71-0.35-2.88c0.3-0.35,0.63-0.67,0.92-1.02c0.71-0.89,0.74-1.66,0.04-2.57
		c-0.32-0.42-0.8-0.72-1.14-1.12c-0.63-0.75-1.33-1.49-1.76-2.35c-0.45-0.88,0.07-1.62,1.07-1.58c0.98,0.04,2,0.18,2.91,0.53
		c1.97,0.76,3.85,1.76,5.83,2.51c5.76,2.17,11.7,2.39,17.72,1.48c9.45-1.43,17.81-5.35,25.4-11.07c4.4-3.31,8.76-6.68,13.23-9.89
		c4.68-3.35,9.72-6.01,15.42-7.18c9.45-1.93,18.58-0.91,27.34,3.13c2.64,1.22,5,2.87,6.23,5.62c0.7,1.55,1.08,3.23,1.62,4.85
		c0.51,1.49,1.04,2.98,1.58,4.46c0.1,0.28,0.3,0.52,0.54,0.91c0.61-0.73,1.19-1.37,1.7-2.05c1.22-1.6,2.42-3.22,3.6-4.85
		c3.41-4.67,8.14-7.12,13.7-8.2c7.83-1.53,15,0.25,21.64,4.41c3.37,2.11,6.68,4.33,9.88,6.68c4.36,3.2,9.12,5.6,14.12,7.57
		c5.83,2.3,11.93,3.08,18.16,2.91c6.6-0.18,13.03-1.37,19.2-3.78c3.87-1.51,7.08-3.89,9.5-7.31c0.39-0.55,0.98-1.07,1.6-1.33
		c1-0.41,1.8,0.27,1.7,1.34c-0.05,0.5-0.18,1.02-0.42,1.45c-1.47,2.62-2.98,5.22-4.49,7.82c-0.14,0.24-0.29,0.47-0.48,0.79
		c0.81,0.31,1.57,0.58,2.31,0.88c2.38,0.97,2.61,2,0.87,3.89c-0.81,0.88-1.69,1.7-2.48,2.6c-0.53,0.6-0.41,0.84,0.36,0.99
		c0.8,0.16,1.61,0.26,2.4,0.48c1.43,0.4,1.94,1.39,1.53,2.82c-0.29,1-0.96,1.72-1.73,2.37c-0.3,0.25-0.59,0.52-0.82,0.97
		c0.49-0.04,0.98-0.09,1.47-0.13c1.45-0.13,2.89-0.29,4.34-0.37c1.14-0.06,1.47,0.32,1.43,1.45c-0.01,0.2-0.03,0.41-0.03,0.61
		c-0.03,1.74-0.29,2.26-2,2.64c-2.63,0.58-5.3,1.05-7.98,1.4c-9.63,1.25-19.33,1.39-29.02,1.58c-19.59,0.39-39.17,0.97-58.76,1.23
		c-17.98,0.23-35.97,0.2-53.95,0.17c-18.42-0.03-36.83-0.27-55.25-0.31c-7.09-0.02-14.18,0.25-21.27,0.42
		c-1.58,0.04-3.15,0.24-4.73,0.29c-0.7,0.02-1.43-0.1-2.11-0.26c-1.03-0.25-1.82-0.82-1.99-1.96c-0.16-1.09,0.38-2.23,1.4-2.76
		C58.76,212.94,59.43,212.79,60.06,212.57z M170.6,203.31c-0.1-0.89-0.19-1.7-0.28-2.5c-0.35-3.17-0.74-6.33-1.67-9.4
		c-1.32-4.36-3.85-7.65-8.16-9.42c-2.87-1.18-5.87-1.75-8.95-1.82c-9.66-0.23-18.82,1.78-27.21,6.66c-4.27,2.48-8.39,5.24-12.56,7.9
		c-7.17,4.58-14.85,7.88-23.27,9.34c-8.87,1.54-17.48,0.65-25.76-2.95c-0.27-0.12-0.55-0.22-0.72-0.29c-0.83,1-1.59,1.91-2.39,2.86
		c0.91,0.29,1.81,0.56,2.69,0.87c0.93,0.32,1.81,0.78,2.3,1.67c0.3,0.54,0.72,0.71,1.26,0.83c3.01,0.67,6.06,0.74,9.13,0.66
		c7.36-0.18,14.65-0.88,21.86-2.44c9.4-2.04,18.27-5.61,27-9.52c3.69-1.65,7.22-3.68,10.75-5.66c6.13-3.43,12.56-4.52,19.41-2.78
		c4.76,1.21,9.05,3.18,11.93,7.41c1.72,2.52,3.19,5.12,2.96,8.33c-0.01,0.14,0.05,0.28,0.09,0.43
		C169.54,203.42,170.02,203.37,170.6,203.31z M61.78,197.42c0.03,1.83,1.24,2.51,2.73,3.06c7.72,2.82,15.6,3.35,23.66,1.9
		c5.61-1.01,10.88-3.02,15.83-5.73c4.69-2.57,9.24-5.41,13.74-8.3c7.11-4.58,14.6-8.1,23.05-9.39c6.24-0.96,12.42-1.13,18.6,0.4
		c4.74,1.17,8.06,3.97,10.19,8.3c1.04,2.13,1.68,4.37,1.97,6.72c0.2,1.62,0.38,3.24,0.57,4.89c0.3-1.78,0.67-3.53,0.85-5.3
		c0.11-1.1,0.14-2.28-0.13-3.34c-0.69-2.66-1.53-5.29-2.37-7.9c-1.25-3.89-3.63-6.78-7.63-8.04c-2.92-0.92-5.84-1.84-8.81-2.54
		c-6.72-1.58-13.38-1.46-19.95,0.95c-5.23,1.91-9.95,4.7-14.33,8.08c-3.66,2.82-7.24,5.73-10.93,8.49
		c-4.93,3.69-10.32,6.47-16.34,7.91c-3.1,0.74-6.21,1.41-9.34,2.03c-7.13,1.39-14.11,0.97-20.83-2.01
		C62.11,197.51,61.92,197.47,61.78,197.42z M174.3,198.64c0.04,0.01,0.09,0.02,0.13,0.03c0.08-0.21,0.16-0.42,0.23-0.62
		c2.37-6.54,6.67-11.35,13.09-14.09c7.57-3.23,15.04-2.53,22.2,1.27c3.66,1.95,7.17,4.2,10.65,6.46c9.74,6.32,20.39,9.7,31.98,10.16
		c6.62,0.26,13.13-0.72,19.63-1.76c3.25-0.52,6.34-1.53,9.15-3.3c0.44-0.28,0.85-0.6,1.25-0.89c-1.8-1.72,0.02-2.69,0.61-3.77
		c-1.2,0.63-2.42,1.37-3.71,1.95c-4.93,2.22-10.17,3.29-15.49,4.05c-10.01,1.43-19.63,0.24-28.82-4.07
		c-6.3-2.95-11.93-6.93-17.52-11.01c-4.9-3.58-10.1-6.46-16.37-7.03c-4.83-0.44-9.45,0.04-13.77,2.25
		c-7.74,3.96-12.47,10.09-13.24,18.95C174.26,197.67,174.3,198.16,174.3,198.64z M264.92,210.23c0,0.05,0,0.11,0,0.16
		c5.17-0.2,10.35-0.46,15.52-0.58c1.83-0.04,3.41-0.5,4.73-1.74c0.81-0.76,1.6-1.56,2.28-2.43c0.51-0.66,0.31-1.2-0.48-1.38
		c-1.5-0.34-2.99-0.85-4.58-0.29c-0.78,0.28-1.64,0.41-2.47,0.48c-2.51,0.22-5.04,0.31-7.55,0.58c-4.16,0.45-8.29,1.14-12.45,1.46
		c-4.7,0.36-9.44,0.77-14.14,0.52c-9.47-0.5-18.34-3.22-26.34-8.49c-3.38-2.23-6.73-4.52-10.67-5.75c-2.55-0.8-5.03-1.82-7.6-2.59
		c-2.09-0.62-4.22-0.85-6.4-0.18c-6.45,2-11.79,5.62-15.99,10.9c-0.71,0.89-1.29,1.9-1.91,2.86c-0.28,0.43-0.28,0.74,0.28,1.01
		c0.62,0.29,1.2,0.68,1.74,1.1c0.39,0.3,0.63,0.24,0.98-0.03c0.87-0.67,1.76-1.31,2.67-1.92c3.41-2.25,7.19-3.73,10.98-5.17
		c3.31-1.26,6.73-1.6,10.24-1.26c4.73,0.45,9.14,2.04,13.45,3.92c5.24,2.29,10.55,4.41,16.09,5.83c4.15,1.06,8.34,1.93,12.52,2.88
		c0.64,0.15,1.3,0.35,1.95,0.34C253.5,210.41,259.21,210.31,264.92,210.23z M175.83,204.14c0.59-2.39,1.86-4.28,3.44-5.98
		c3.7-3.96,8.2-6.76,13.08-9.01c2.82-1.3,5.71-1.51,8.66-0.75c1.9,0.49,3.74,1.17,5.63,1.72c4.1,1.19,7.91,2.94,11.5,5.26
		c2.78,1.8,5.57,3.64,8.53,5.07c6.17,2.99,12.69,4.9,19.59,5.32c5.11,0.32,10.19-0.11,15.27-0.62c5-0.5,10-0.92,15.01-1.38
		c1.73-0.16,3.45-0.3,5.18-0.45c0.53-0.05,0.82-0.22,0.93-0.86c0.09-0.56,0.48-1.12,0.88-1.56c0.51-0.56,1.16-0.99,1.72-1.51
		c0.5-0.47,1.02-0.93,1.41-1.49c0.16-0.23,0.12-0.95,0-0.99c-0.83-0.3-1.69-0.54-2.56-0.66c-0.26-0.04-0.58,0.39-0.87,0.61
		c-0.33,0.24-0.63,0.53-0.98,0.73c-2.4,1.44-4.93,2.54-7.66,3.21c-3.78,0.93-7.66,1.16-11.51,1.6c-9.67,1.11-19.16,0.37-28.43-2.6
		c-3.32-1.06-6.68-2.19-9.73-3.82c-4.18-2.22-8.13-4.88-12.09-7.48c-5.21-3.41-10.86-5.26-17.11-5.03c-7,0.25-12.71,3.1-16.88,8.78
		c-2.16,2.94-3.31,6.36-4.26,9.84c-0.14,0.5-0.26,1.01-0.4,1.54C174.78,203.82,175.26,203.97,175.83,204.14z M165.43,204.6
		c0.71-0.26,1.41-0.49,2.08-0.79c0.17-0.08,0.37-0.39,0.34-0.56c-0.23-1.32-0.26-2.75-0.81-3.93c-2.07-4.43-5.21-7.8-9.94-9.52
		c-4.49-1.64-9.07-2.43-13.81-1.56c-2.96,0.54-5.75,1.66-8.34,3.14c-6.66,3.8-13.61,6.94-20.7,9.84
		c-11.25,4.61-22.93,7.05-35.04,7.52c-4.74,0.19-9.47,0.11-14.16-0.97c-1.14,1.56-3.33,1.39-4.71,2.57c0.61,0.8,1.19,1.54,1.72,2.24
		c5.32-0.51,10.62-1.11,15.93-1.49c6.6-0.48,13.14-1.29,19.56-2.97c6.34-1.66,12.67-3.33,18.76-5.8c4.39-1.79,8.77-3.62,13.2-5.29
		c4.98-1.87,10.08-3.3,15.45-3.51c5.49-0.22,10.53,1.07,14.86,4.58C162.06,199.93,164,202.05,165.43,204.6z M164.66,205.01
		c-0.2-0.33-0.37-0.64-0.57-0.93c-2.92-4.32-7.06-6.93-11.97-8.37c-4.33-1.27-8.72-1.09-13.1-0.19c-5.21,1.06-10.11,3.03-14.94,5.14
		c-9.42,4.13-19.15,7.26-29.22,9.37c-1.02,0.21-2.05,0.4-3.08,0.6c0.21,0.14,0.41,0.16,0.61,0.16c3.98,0.04,7.96,0.08,11.93,0.12
		c0.41,0,0.82,0,1.22-0.06c3.41-0.46,6.63-1.54,9.82-2.8c4.5-1.78,9.01-3.56,13.61-5.08c7.13-2.36,14.46-2.99,21.9-1.89
		c3.93,0.58,7.54,1.97,10.43,4.85c0.37,0.37,0.73,0.76,1.07,1.12C163.15,206.37,163.87,205.72,164.66,205.01z M181.81,209.24
		c1.04-0.53,1.99-1.18,3.04-1.53c2.85-0.95,5.7-1.97,8.62-2.61c5.3-1.16,10.69-1.06,16.06-0.45c5,0.57,9.92,1.52,14.62,3.44
		c2.1,0.86,4.26,1.56,6.41,2.28c0.81,0.27,1.68,0.58,2.51,0.57c3.24-0.03,6.47-0.18,9.71-0.29c0.46-0.02,0.92-0.05,1.39-0.07
		c-1.03-0.41-2.06-0.67-3.09-0.9c-3.09-0.66-6.21-1.2-9.27-1.98c-7.08-1.79-13.86-4.48-20.65-7.15c-4.72-1.86-9.64-2.54-14.63-1.24
		c-4.86,1.27-9.46,3.19-13.7,5.93c-0.87,0.56-1.7,1.19-2.54,1.78C180.85,207.84,181.34,208.55,181.81,209.24z M181.91,210.76
		c0.05,0.12,0.09,0.23,0.14,0.35c15.7-0.56,31.41,0.43,47.12-0.12c-1.79-0.65-3.59-1.19-5.37-1.79c-8.82-2.93-17.84-4.26-27.13-3.23
		c-4.91,0.54-9.6,1.88-13.98,4.2C182.4,210.33,182.17,210.57,181.91,210.76z M111.04,210.68c0.75,0,1.49,0.04,2.22-0.01
		c2.27-0.14,4.52-0.08,6.76-0.93c6.89-2.63,14.05-4.25,21.43-4.73c5.73-0.37,11.24,0.51,16.39,3.18c1.04,0.54,2.03,1.16,3.08,1.78
		c0.11-0.26,0.21-0.48,0.31-0.71c0.11-0.26,0.19-0.54,0.36-0.76c0.36-0.48,0.21-0.78-0.2-1.14c-2.55-2.28-5.5-3.78-8.8-4.57
		c-7.35-1.76-14.67-1.09-21.77,1C124.12,205.73,117.63,208.34,111.04,210.68z M160.16,211.16c0.04-0.16,0.07-0.31,0.11-0.47
		c-2.56-1.12-5.06-2.41-7.69-3.33c-3.92-1.38-8.04-1.28-12.12-0.99c-6.59,0.47-12.99,1.98-19.33,3.77c-0.17,0.05-0.34,0.13-0.5,0.2
		c0.01,0.04,0.02,0.08,0.03,0.12C133.83,210.7,146.99,210.93,160.16,211.16z M180.86,211.04c-0.1-0.24-0.13-0.34-0.18-0.42
		c-0.13-0.19-0.25-0.38-0.4-0.56c-2.41-2.92-5.56-4.21-9.28-4.14c-2.65,0.05-4.98,0.98-6.84,2.93c-0.57,0.6-0.91,1.31-1.02,2.19
		C169.06,211.04,174.9,211.04,180.86,211.04z"/>
	<path class="st1" d="M170.6,203.31c-0.58,0.06-1.06,0.12-1.58,0.17c-0.03-0.15-0.1-0.29-0.09-0.43c0.23-3.21-1.24-5.81-2.96-8.33
		c-2.88-4.23-7.17-6.2-11.93-7.41c-6.85-1.73-13.28-0.65-19.41,2.78c-3.54,1.98-7.06,4.01-10.75,5.66c-8.73,3.91-17.6,7.48-27,9.52
		c-7.21,1.56-14.5,2.27-21.86,2.44c-3.07,0.07-6.12,0.01-9.13-0.66c-0.54-0.12-0.97-0.29-1.26-0.83c-0.49-0.89-1.37-1.35-2.3-1.67
		c-0.89-0.31-1.78-0.58-2.69-0.87c0.8-0.95,1.55-1.87,2.39-2.86c0.17,0.07,0.45,0.17,0.72,0.29c8.29,3.6,16.89,4.49,25.76,2.95
		c8.41-1.46,16.1-4.76,23.27-9.34c4.17-2.66,8.29-5.41,12.56-7.9c8.39-4.88,17.55-6.89,27.21-6.66c3.08,0.07,6.08,0.64,8.95,1.82
		c4.31,1.77,6.84,5.06,8.16,9.42c0.93,3.07,1.31,6.23,1.67,9.4C170.41,201.61,170.5,202.42,170.6,203.31z"/>
	<path class="st1" d="M61.78,197.42c0.14,0.04,0.33,0.09,0.5,0.16c6.72,2.97,13.7,3.4,20.83,2.01c3.13-0.61,6.24-1.28,9.34-2.03
		c6.02-1.44,11.41-4.23,16.34-7.91c3.69-2.76,7.27-5.68,10.93-8.49c4.39-3.38,9.1-6.16,14.33-8.08c6.58-2.41,13.23-2.52,19.95-0.95
		c2.97,0.7,5.9,1.62,8.81,2.54c4,1.26,6.38,4.15,7.63,8.04c0.84,2.62,1.69,5.24,2.37,7.9c0.27,1.06,0.25,2.24,0.13,3.34
		c-0.18,1.77-0.55,3.51-0.85,5.3c-0.19-1.65-0.37-3.27-0.57-4.89c-0.29-2.35-0.92-4.59-1.97-6.72c-2.12-4.33-5.45-7.13-10.19-8.3
		c-6.19-1.53-12.37-1.36-18.6-0.4c-8.45,1.3-15.94,4.82-23.05,9.39c-4.5,2.9-9.05,5.74-13.74,8.3c-4.96,2.71-10.23,4.72-15.83,5.73
		c-8.06,1.45-15.94,0.92-23.66-1.9C63.02,199.93,61.81,199.25,61.78,197.42z"/>
	<path class="st1" d="M174.3,198.64c0-0.48-0.04-0.97,0.01-1.44c0.76-8.86,5.5-14.99,13.24-18.95c4.32-2.21,8.94-2.68,13.77-2.25
		c6.27,0.57,11.47,3.45,16.37,7.03c5.59,4.08,11.22,8.06,17.52,11.01c9.19,4.31,18.81,5.5,28.82,4.07
		c5.32-0.76,10.56-1.83,15.49-4.05c1.29-0.58,2.51-1.32,3.71-1.95c-0.58,1.09-2.41,2.05-0.61,3.77c-0.4,0.29-0.81,0.61-1.25,0.89
		c-2.8,1.78-5.9,2.78-9.15,3.3c-6.5,1.04-13.01,2.02-19.63,1.76c-11.59-0.46-22.24-3.83-31.98-10.16
		c-3.48-2.26-6.99-4.52-10.65-6.46c-7.16-3.8-14.62-4.5-22.2-1.27c-6.42,2.74-10.72,7.55-13.09,14.09
		c-0.08,0.21-0.15,0.42-0.23,0.62C174.38,198.66,174.34,198.65,174.3,198.64z"/>
	<path class="st1" d="M264.92,210.23c-5.71,0.08-11.43,0.18-17.14,0.23c-0.65,0.01-1.31-0.19-1.95-0.34
		c-4.18-0.95-8.37-1.82-12.52-2.88c-5.55-1.42-10.85-3.54-16.09-5.83c-4.32-1.89-8.72-3.47-13.45-3.92c-3.5-0.33-6.92,0-10.24,1.26
		c-3.79,1.44-7.57,2.92-10.98,5.17c-0.91,0.6-1.8,1.25-2.67,1.92c-0.36,0.27-0.59,0.34-0.98,0.03c-0.54-0.42-1.12-0.81-1.74-1.1
		c-0.56-0.26-0.56-0.58-0.28-1.01c0.63-0.96,1.2-1.96,1.91-2.86c4.2-5.28,9.54-8.9,15.99-10.9c2.18-0.68,4.31-0.44,6.4,0.18
		c2.56,0.76,5.04,1.79,7.6,2.59c3.94,1.23,7.28,3.52,10.67,5.75c8,5.26,16.86,7.99,26.34,8.49c4.69,0.25,9.43-0.16,14.14-0.52
		c4.16-0.32,8.3-1.01,12.45-1.46c2.51-0.27,5.04-0.36,7.55-0.58c0.83-0.07,1.69-0.2,2.47-0.48c1.59-0.56,3.08-0.05,4.58,0.29
		c0.8,0.18,0.99,0.72,0.48,1.38c-0.68,0.88-1.47,1.67-2.28,2.43c-1.32,1.23-2.9,1.7-4.73,1.74c-5.18,0.12-10.35,0.38-15.52,0.58
		C264.93,210.34,264.93,210.28,264.92,210.23z"/>
	<path class="st1" d="M175.83,204.14c-0.57-0.17-1.05-0.32-1.65-0.5c0.14-0.53,0.26-1.04,0.4-1.54c0.95-3.49,2.1-6.9,4.26-9.84
		c4.17-5.68,9.88-8.53,16.88-8.78c6.24-0.22,11.9,1.62,17.11,5.03c3.97,2.6,7.92,5.26,12.09,7.48c3.06,1.63,6.42,2.76,9.73,3.82
		c9.27,2.96,18.77,3.71,28.43,2.6c3.85-0.44,7.72-0.67,11.51-1.6c2.73-0.67,5.26-1.77,7.66-3.21c0.35-0.21,0.65-0.49,0.98-0.73
		c0.29-0.22,0.61-0.64,0.87-0.61c0.87,0.12,1.73,0.36,2.56,0.66c0.11,0.04,0.16,0.76,0,0.99c-0.39,0.55-0.91,1.02-1.41,1.49
		c-0.56,0.52-1.21,0.95-1.72,1.51c-0.39,0.44-0.78,1-0.88,1.56c-0.11,0.64-0.39,0.81-0.93,0.86c-1.73,0.15-3.46,0.3-5.18,0.45
		c-5,0.45-10.01,0.88-15.01,1.38c-5.08,0.51-10.16,0.94-15.27,0.62c-6.9-0.43-13.42-2.33-19.59-5.32c-2.97-1.44-5.75-3.28-8.53-5.07
		c-3.59-2.32-7.41-4.08-11.5-5.26c-1.88-0.55-3.73-1.23-5.63-1.72c-2.96-0.76-5.85-0.55-8.66,0.75c-4.88,2.25-9.38,5.05-13.08,9.01
		C177.69,199.85,176.43,201.75,175.83,204.14z"/>
	<path class="st1" d="M165.43,204.6c-1.43-2.56-3.36-4.67-5.61-6.49c-4.34-3.51-9.37-4.8-14.86-4.58
		c-5.37,0.21-10.47,1.64-15.45,3.51c-4.44,1.67-8.81,3.5-13.2,5.29c-6.09,2.47-12.42,4.14-18.76,5.8
		c-6.42,1.68-12.95,2.49-19.56,2.97c-5.31,0.39-10.61,0.98-15.93,1.49c-0.54-0.7-1.11-1.44-1.72-2.24c1.37-1.18,3.57-1.01,4.71-2.57
		c4.69,1.08,9.42,1.16,14.16,0.97c12.11-0.47,23.79-2.91,35.04-7.52c7.09-2.91,14.04-6.05,20.7-9.84c2.6-1.48,5.38-2.6,8.34-3.14
		c4.75-0.87,9.32-0.08,13.81,1.56c4.73,1.72,7.87,5.09,9.94,9.52c0.55,1.18,0.59,2.61,0.81,3.93c0.03,0.17-0.17,0.48-0.34,0.56
		C166.84,204.11,166.14,204.34,165.43,204.6z"/>
	<path class="st1" d="M164.66,205.01c-0.8,0.71-1.51,1.35-2.28,2.04c-0.34-0.36-0.7-0.75-1.07-1.12c-2.89-2.87-6.5-4.26-10.43-4.85
		c-7.44-1.1-14.78-0.47-21.9,1.89c-4.59,1.52-9.1,3.3-13.61,5.08c-3.19,1.26-6.41,2.34-9.82,2.8c-0.4,0.05-0.81,0.06-1.22,0.06
		c-3.98-0.04-7.96-0.08-11.93-0.12c-0.2,0-0.4-0.02-0.61-0.16c1.03-0.2,2.06-0.39,3.08-0.6c10.07-2.1,19.8-5.24,29.22-9.37
		c4.84-2.12,9.74-4.08,14.94-5.14c4.38-0.9,8.78-1.08,13.1,0.19c4.91,1.44,9.05,4.05,11.97,8.37
		C164.29,204.38,164.46,204.69,164.66,205.01z"/>
	<path class="st1" d="M181.81,209.24c-0.48-0.7-0.97-1.41-1.52-2.22c0.84-0.59,1.67-1.22,2.54-1.78c4.24-2.74,8.84-4.67,13.7-5.93
		c4.98-1.3,9.91-0.62,14.63,1.24c6.79,2.67,13.57,5.36,20.65,7.15c3.06,0.78,6.18,1.32,9.27,1.98c1.04,0.22,2.07,0.49,3.09,0.9
		c-0.46,0.02-0.92,0.05-1.39,0.07c-3.24,0.11-6.47,0.26-9.71,0.29c-0.84,0.01-1.7-0.3-2.51-0.57c-2.15-0.72-4.31-1.43-6.41-2.28
		c-4.7-1.92-9.61-2.87-14.62-3.44c-5.37-0.61-10.76-0.71-16.06,0.45c-2.93,0.64-5.77,1.66-8.62,2.61
		C183.8,208.07,182.86,208.71,181.81,209.24z"/>
	<path class="st1" d="M181.91,210.76c0.25-0.19,0.49-0.43,0.77-0.58c4.38-2.32,9.07-3.66,13.98-4.2c9.29-1.03,18.31,0.29,27.13,3.23
		c1.78,0.59,3.58,1.14,5.37,1.79c-15.71,0.55-31.42-0.44-47.12,0.12C182,210.99,181.96,210.88,181.91,210.76z"/>
	<path class="st1" d="M111.04,210.68c6.59-2.33,13.08-4.95,19.77-6.91c7.1-2.08,14.43-2.76,21.77-1c3.3,0.79,6.26,2.29,8.8,4.57
		c0.41,0.37,0.56,0.67,0.2,1.14c-0.16,0.22-0.24,0.5-0.36,0.76c-0.1,0.23-0.2,0.46-0.31,0.71c-1.06-0.61-2.05-1.24-3.08-1.78
		c-5.15-2.66-10.66-3.55-16.39-3.18c-7.38,0.48-14.53,2.1-21.43,4.73c-2.24,0.85-4.48,0.79-6.76,0.93
		C112.53,210.71,111.79,210.68,111.04,210.68z"/>
	<path class="st1" d="M160.16,211.16c-13.17-0.23-26.33-0.47-39.5-0.7c-0.01-0.04-0.02-0.08-0.03-0.12c0.17-0.07,0.33-0.15,0.5-0.2
		c6.34-1.78,12.74-3.3,19.33-3.77c4.08-0.29,8.2-0.4,12.12,0.99c2.63,0.93,5.13,2.21,7.69,3.33
		C160.23,210.85,160.2,211.01,160.16,211.16z"/>
	<path d="M180.86,211.04c-5.96,0-11.81,0-17.72,0c0.11-0.88,0.44-1.59,1.02-2.19c1.86-1.95,4.19-2.88,6.84-2.93
		c3.72-0.07,6.88,1.22,9.28,4.14c0.15,0.18,0.27,0.37,0.4,0.56C180.74,210.7,180.76,210.8,180.86,211.04z"/>
</g>
<g>
	<path d="M64.22,164.42c-0.11,0.07-0.18,0.13-0.35,0.24c0.17-0.46,0.29-0.8,0.44-1.2c-0.22-0.02-0.41-0.03-0.62-0.04
		c0.48-0.62,0.97-1.25,1.32-1.7c-0.09,0.86,0.73,1.01,1.19,1.62c-0.02,0.07-0.05,0.14-0.07,0.22c-0.24-0.02-0.49-0.04-0.76-0.06
		c-0.01,0.42,0.66,0.69,0.16,1.28c0.35,0.67,1.06,0.68,1.31,1.7c-0.28,0-0.47,0-0.77,0c0.14,0.18,0.21,0.3,0.29,0.38
		c0.31,0.26,0.64,0.46,0.93,0.76c0.12,0.12,0.16,0.44,0.23,0.67c-0.16,0.06-0.33,0.21-0.48,0.17c-0.34-0.1-0.67-0.3-1.01-0.44
		c-0.09-0.04-0.19-0.02-0.28-0.03c-0.02,0.07-0.04,0.13-0.06,0.2c0.5,0.46,1.01,0.92,1.51,1.37c0.26,0.23,0.57,0.39,0.79,0.69
		c0.14,0.19,0.17,0.59,0.25,0.9c-0.2,0.05-0.39,0.11-0.59,0.13c-0.19,0.02-0.38,0-0.56,0c0,0.09-0.01,0.18-0.01,0.27
		c0.19,0.09,0.4,0.15,0.58,0.27c0.38,0.26,0.78,0.5,1.13,0.84c0.31,0.3,0.34,0.76,0.14,1.13c-0.27,0-0.5,0.09-0.67-0.02
		c-0.24-0.16-0.42-0.36-0.54,0.29c0.24,0.08,0.47,0.1,0.68,0.23c0.39,0.24,0.78,0.49,1.13,0.84c0.39,0.41,0.38,0.82,0.16,1.22
		c-0.27,0.09-0.41,0.16-0.56,0.17c-0.11,0.01-0.25-0.02-0.31-0.12c-0.3-0.44-0.45-0.24-0.53,0.13c0.5,0.32,1.03,0.54,1.47,0.98
		c0.55,0.54,0.54,0.95,0.12,1.83c-0.18-0.37-0.37-0.56-0.51,0.07c-0.14-0.15-0.25-0.31-0.38-0.39c-0.11-0.07-0.32-0.11-0.34-0.06
		c-0.06,0.2-0.09,0.45-0.06,0.66c0.03,0.23,0.16,0.43,0.23,0.65c0.18,0.58,0.11,0.85-0.23,1.11c-0.18-0.13-0.32-0.24-0.47-0.34
		c-0.2-0.22-0.3-0.86-0.71-0.15c-0.05-0.24-0.08-0.41-0.13-0.65c-0.14,0.29,0.19,1-0.43,0.71c0.02,0.08,0.04,0.16,0.06,0.24
		c0.17,0.1,0.34,0.19,0.51,0.29c0.52,0.32,1.03,0.62,1.54,0.96c0.11,0.07,0.22,0.27,0.25,0.45c0.03,0.15-0.05,0.49-0.1,0.5
		c-0.23,0.04-0.47,0.01-0.71-0.01c-0.21-0.01-0.41-0.04-0.65-0.06c-0.46-0.21-0.97-0.44-1.48-0.68c-0.02,0.04-0.03,0.08-0.05,0.13
		c0.03,0.05,0.06,0.1,0.09,0.15c0.03,0.05,0.07,0.09,0.11,0.12c0.63,0.52,1.23,1.2,1.9,1.5c0.61,0.27,1.21,0.49,1.76,1.01
		c0.37,0.35,0.43,0.73,0.21,1.17c-0.24,0-0.44,0-0.64,0c0,0.07,0,0.13,0,0.2c-0.35-0.22-0.69-0.79-0.95-0.21
		c-0.85-0.37-1.64-0.71-2.43-1.05c-0.02,0.07-0.03,0.14-0.05,0.22c0.82,0.36,1.44,1.41,2.37,1.47c0.33,0.02,0.67,0.31,0.96,0.59
		c0.12,0.12,0.19,0.54,0.16,0.79c-0.04,0.26-0.31,0.1-0.38,0.15c-0.32,0.19-0.55-0.03-0.82-0.13c-0.1-0.04-0.25,0.22-0.36,0.33
		c-0.39-0.53-0.85-0.66-1.34-0.79c-0.49-0.13-0.97-0.41-1.53-0.66c0.14,3.11-0.05,6.22,0.49,9.29c-0.57,0-1.15,0-1.75,0
		c0.64-3.05,0.3-6.2,0.52-9.17c-0.33-0.1-0.58-0.26-0.81-0.21c-0.19,0.04-0.4,0.29-0.51,0.53c-0.34,0.74-1.02,1.11-1.48,0.7
		c-0.06,0.2-0.12,0.39-0.16,0.53c-0.34-0.16-0.65-0.3-1.06-0.49c-0.1,0.13-0.27,0.35-0.42,0.54c-0.15-0.42-0.07-0.89,0.39-1.19
		c0.49-0.33,1.02-0.54,1.53-0.82c0.09-0.05,0.17-0.14,0.26-0.21c0.28-0.26,0.56-0.5,0.82-0.78c0.28-0.29,0.54-0.62,0.84-0.98
		c-0.16-0.14-0.29-0.25-0.32-0.28c-0.53,0.55-0.98,1.06-1.46,1.51c-0.14,0.12-0.35,0.03-0.53,0.06c-0.17,0.03-0.34,0.09-0.49,0.3
		c-0.35-0.14-0.7-0.27-1.1-0.43c-0.12,0.2-0.28,0.48-0.48,0.84c-0.12-0.42-0.18-0.71,0.04-1.1c0.46-0.81,1.14-0.89,1.71-1.34
		c0.35-0.28,0.72-0.47,1.05-0.79c0.66-0.63,1.3-1.31,2-2.02c-0.24-0.05-0.4-0.08-0.57-0.11c-0.25,0.88-2.01,1.78-2.68,1.09
		c-0.13,0.19-0.26,0.39-0.39,0.58c-0.16-0.47-0.02-0.94,0.41-1.25c0.32-0.23,0.65-0.41,0.98-0.63c0.33-0.22,0.65-0.47,0.98-0.7
		c-0.03-0.09-0.05-0.18-0.08-0.26c-0.13,0.08-0.27,0.17-0.41,0.26c0-0.26,0.05-0.57-0.02-0.79c-0.03-0.11-0.29-0.05-0.48-0.07
		c-0.02,0.14-0.06,0.34-0.08,0.48c-0.31-0.08-0.58-0.16-0.89-0.24c-0.06,0.29-0.12,0.62-0.19,0.95c-0.33-0.64-0.29-1.11,0.16-1.88
		c-0.07-0.12-0.14-0.25-0.23-0.41c-0.09,0.11-0.17,0.21-0.27,0.32c-0.07-0.19-0.13-0.34-0.22-0.57c-0.17,0.4-0.33,0.77-0.48,1.13
		c-0.3-0.71-0.21-1.54,0.38-1.95c0.54-0.38,0.95-1.25,1.65-1.14c0.1,0.02,0.22-0.24,0.36-0.42c-0.23-0.11-0.38-0.17-0.55-0.25
		c-0.04,0.21-0.07,0.41-0.11,0.59c-0.36-0.2-0.68-0.38-1.04-0.59c-0.12,0.25-0.27,0.56-0.41,0.87c-0.3-0.66-0.08-1.24,0.37-1.71
		c0.46-0.48,1.03-0.71,1.55-1.06c0.2-0.14,0.38-0.31,0.2-0.8c-0.09,0.22-0.16,0.37-0.21,0.5c-0.28-0.14-0.55-0.28-0.85-0.43
		c-0.1,0.21-0.22,0.46-0.35,0.73c-0.15-0.73-0.02-1.27,0.42-1.61c0.4-0.31,0.84-0.53,1.24-0.86c0.19-0.15,0.32-0.44,0.45-0.78
		c-0.15,0.08-0.31,0.16-0.54,0.27c-0.23-0.11-0.58-0.59-0.83,0.25c-0.17-0.53-0.04-1.04,0.36-1.34c0.62-0.46,1.23-0.94,1.74-1.69
		c0.24-0.36,0.47-0.74,0.67-1.23c-0.33,0.3-0.63,0.68-0.98,0.87c-0.34,0.19-0.72,0.19-1.12,0.28c-0.1-0.34,0-0.58,0.52-1.04
		c0.31-0.28,0.61-0.58,0.88-1.02c-0.24,0-0.48,0-0.75,0C63.05,165.41,63.94,165.43,64.22,164.42z M63.03,180.03
		c0.31-0.35,0.63-0.7,0.96-1.08C63.73,178.63,63.73,178.63,63.03,180.03z"/>
	<path d="M90.43,187.66c-0.64-0.21-1.28-0.43-1.93-0.64c0-0.04,0-0.08,0-0.12c0.52-0.1,1.05-0.2,1.58-0.3
		c-0.32-0.88-0.51-0.96-1-0.51c-0.1,0.09-0.22,0.13-0.34,0.14c-0.28,0.02-0.57-0.34-0.84,0.09c-0.02,0.03-0.22-0.13-0.27-0.26
		c-0.27-0.62-0.68-0.54-1.07-0.54c-0.04,0-0.09,0.04-0.11,0.09c-0.29,0.76-0.41,0.24-0.54-0.17c-0.12,0.09-0.22,0.16-0.4,0.29
		c0.15-0.39,0.25-0.67,0.32-0.86c0.21,0,0.36,0.01,0.52,0c0.44-0.04,0.87-0.11,1.31-0.12c0.11,0,0.22,0.19,0.32,0.11
		c0.2-0.03,0.4-0.05,0.6-0.1c0.14-0.03,0.27-0.11,0.4-0.16c-0.01-0.09-0.02-0.19-0.04-0.28c-0.23,0.05-0.47,0.11-0.7,0.13
		c-0.15,0.01-0.29-0.05-0.44-0.08c-0.19-0.05-0.38-0.1-0.56-0.15c0.18-0.22,0.34-0.42,0.45-0.57c0.33-0.05,0.63-0.09,1-0.15
		c-0.11-0.22-0.16-0.33-0.31-0.63c0.52,0.46,0.49-1.08,0.92-0.4c0.31-0.25,0.57-0.46,0.87-0.7c-0.43-0.11-0.82-0.21-1.21-0.3
		c-0.04-0.01-0.1-0.04-0.13-0.01c-0.4,0.5-0.7,0.12-0.94-0.25c-0.18,0.24-0.37,0.65-0.49,0.61c-0.28-0.1-0.53-0.41-0.74-0.78
		c-0.17-0.04-0.35-0.07-0.61-0.13c0.28-0.17,0.46-0.28,0.64-0.4c0.28,0.39,0.55,0.25,0.79-0.1c0.28-0.42,0.54-0.73,0.77-0.08
		c0.88-0.15,1.7-0.29,2.6-0.44c-0.28-0.26-0.44-0.43-0.62-0.56c-0.09-0.06-0.24-0.12-0.29-0.06c-0.44,0.64-0.67,0.04-0.94-0.35
		c-0.03-0.05-0.07-0.09-0.1-0.13c-0.12,0.08-0.24,0.17-0.49,0.34c0.17-0.53,0.27-0.86,0.36-1.13c-0.4,0.09-0.85,0.2-1.3,0.3
		c-0.16-0.21-0.32-0.42-0.48-0.62c0.01-0.03,0.02-0.05,0.03-0.08c0.14,0.09,0.28,0.19,0.42,0.28c0.26-0.71,0.29-0.71,0.7-0.13
		c0.08-0.83,0.5-0.61,0.82-0.6c0.42,0.02,0.85,0.02,1.25,0.21c0.3,0.14,0.55,0.11,0.82-0.03c0.06-0.03,0.11-0.12,0.21-0.23
		c-0.18-0.19-0.33-0.35-0.49-0.52c0.07-0.15,0.12-0.28,0.14-0.31c-0.6-0.27-1.23-0.56-1.88-0.86c0.13-0.2,0.28-0.45,0.44-0.69
		c-0.63,0.45-1.12-0.32-1.69-0.38c0.69-0.15,1.3-1.06,2.08-0.44c0.23-0.52,0.55-0.49,0.9-0.2c-0.12-0.13-0.25-0.26-0.43-0.46
		c0.11-0.1,0.21-0.19,0.26-0.23c-0.46-0.41-0.9-0.8-1.44-1.27c0.24-0.17,0.44-0.31,0.72-0.51c-0.49-0.13-0.9-0.24-1.3-0.34
		c0.43,0,0.58-0.88,1.17-0.67c0.43,0.15,0.98-0.47,1.47-0.74c-0.01-0.06-0.02-0.11-0.03-0.17c-0.39-0.19-0.77-0.39-1.2-0.6
		c0.13-0.17,0.23-0.29,0.27-0.34c-0.32-0.13-0.64-0.27-1.1-0.46c0.58-0.45,1.07-0.83,1.55-1.2c-0.01-0.07-0.03-0.15-0.04-0.22
		c-0.21-0.15-0.41-0.3-0.73-0.53c0.34-0.17,0.59-0.3,0.78-0.39c-0.21-0.19-0.46-0.42-0.7-0.65c-0.01-0.06-0.02-0.12-0.03-0.18
		c0.52-0.01,0.94-0.2,0.96-1.14c-0.14-0.07-0.34-0.18-0.64-0.34c0.45-0.24,0.8-0.42,1.23-0.64c-0.26-0.1-0.45-0.17-0.64-0.24
		c0.61-0.67,1.25-0.53,1.91-0.04c-0.03,0.06-0.09,0.17-0.16,0.31c0.19,0.22,0.38,0.44,0.67,0.77c-0.35,0-0.57,0-0.87,0
		c0.16,0.23,0.27,0.39,0.42,0.6c-0.09,0.1-0.18,0.19-0.32,0.33c0.41,0.15,0.79,0.28,1.16,0.42c-0.01,0.06-0.02,0.12-0.02,0.18
		c-0.2,0.13-0.4,0.27-0.71,0.48c0.3,0.23,0.51,0.39,0.81,0.63c-0.32,0.26-0.56,0.44-0.87,0.69c0.49,0.36,1,0.73,1.56,1.13
		c-0.43,0.11-0.81,0.2-1.19,0.3c-0.01,0.08-0.01,0.16-0.02,0.23c0.12,0.1,0.24,0.21,0.5,0.43c-0.48,0.19-0.85,0.33-1.3,0.5
		c0.18,0.16,0.3,0.26,0.45,0.39c-0.05,0.13-0.09,0.25-0.15,0.42c0.42,0,0.83-0.08,1.21,0.02c0.38,0.1,0.74,0.4,1.11,0.61
		c-0.45,0.56-1.02,0.38-1.57,0.3c-0.01,0.07-0.01,0.13-0.02,0.2c0.3,0.24,0.59,0.49,0.93,0.76c-0.06,0.42-0.36,0.48-0.62,0.52
		c-0.32,0.05-0.54,0.13-0.57,0.76c-0.01,0.24-0.31,0.44-0.52,0.71c0.25,0,0.65,0.17,0.76-0.03c0.46-0.84,0.72-0.24,0.89-0.01
		c0.6,0.09,1.04,0.16,1.57,0.25c-0.41,0.62-0.9,0.05-1.24,0.59c-0.09,0.14-0.44-0.13-0.75-0.24c-0.02,0.03-0.12,0.17-0.31,0.46
		c0.43,0.07,0.74,0.13,1.06,0.18c-0.11,0.59-0.73,0.97-1.1,0.65c-0.21-0.18-0.34-0.24-0.54,0.06c-0.08,0.13-0.31,0.07-0.46,0.05
		c-0.11-0.02-0.22-0.12-0.33-0.19c-0.02,0.06-0.04,0.12-0.06,0.18c0.45,0.38,0.89,0.76,1.34,1.13c0.05,0.04,0.12,0.07,0.15,0.13
		c0.23,0.57,0.45,0.34,0.66-0.03c0.19-0.33,0.36-0.36,0.61-0.07c0.14,0.16,0.38,0.09,0.57,0.14c0.36,0.09,0.72,0.2,1.11,0.41
		c-0.18,0.05-0.37,0.1-0.55,0.14c-0.21,0.05-0.54-0.02-0.61,0.16c-0.33,0.8-0.51,0.2-0.76-0.18c-0.12,0.22-0.23,0.42-0.38,0.68
		c0.32,0.07,0.57,0.12,0.9,0.19c-0.58,0.66-1.12,0.75-1.68,0.51c-0.22,0.2-0.43,0.4-0.64,0.59c0.25,0.59,0.68,0.42,1.04,0.39
		c0.27-0.02,0.58,0.22,0.85-0.2c0.07-0.11,0.37,0.03,0.53,0.16c0.38,0.31,0.72,0.62,1.15,0.16c0.09-0.09,0.34,0.2,0.6,0.37
		c0.03-0.05,0.13-0.24,0.29-0.52c0.07,0.24,0.13,0.43,0.15,0.52c-0.11,0.12-0.17,0.21-0.25,0.28c-0.12,0.11-0.24,0.29-0.37,0.3
		c-0.48,0.01-0.93,0.08-1.37,0.47c-0.12,0.11-0.36-0.07-0.64-0.14c-0.26,0.07-0.64,0.18-1.03,0.29c0.24,1,0.92,0.46,1.39,0.88
		c-0.23,0.22-0.36,0.34-0.55,0.52c0.65,0.4,1.2,0.75,1.7,1.07c-0.39,0.17-0.76,0.34-1.14,0.51c-0.01,0.07-0.01,0.15-0.02,0.22
		c0.15,0.05,0.36,0.23,0.44,0.14c0.42-0.47,0.68-0.15,0.9,0.3c0.13-0.25,0.3-0.76,0.39-0.72c0.37,0.13,0.72,0.43,1.08,0.67
		c-0.01,0.05-0.03,0.11-0.04,0.16c-0.31-0.13-0.63-0.26-0.94-0.39c-0.19,1.18-0.41,1.34-0.92,0.85c-0.25,0.02-0.5,0.05-0.74,0.04
		c-0.24-0.01-0.5-0.27-0.7,0.2c-0.04,0.08-0.21,0.11-0.29,0.06c-0.31-0.21-0.4,0.11-0.59,0.51c0.47-0.07,0.86-0.14,1.24-0.2
		c0.01,0.06,0.02,0.12,0.02,0.18c-0.29,0.21-0.57,0.43-0.86,0.64c-0.08,0.05-0.19,0.14-0.25,0.09c-0.39-0.31-0.76,0-1.01,0.04
		c0.26,0.33,0.59,0.74,0.89,1.11c0.47-0.18,0.93-0.41,1.4-0.54c0.38-0.1,0.58,0.34,0.71,0.82c0.21-0.24,0.4-0.52,0.63-0.68
		c0.1-0.07,0.28,0.11,0.4,0.27c-0.44-0.26-0.44,0.53-0.68,0.68c-0.05,0.03-0.06,0.2-0.1,0.3c-0.18,0.47-0.36,0.48-0.57,0.05
		c-0.07-0.14-0.16-0.41-0.21-0.39c-0.36,0.14-0.72,0.34-1.07,0.52c0.02,0.08,0.03,0.16,0.05,0.24c0.11-0.05,0.22-0.09,0.36-0.16
		c-0.09,0.28-0.17,0.56-0.28,0.8c-0.02,0.05-0.2,0.01-0.25-0.07c-0.29-0.47-0.57-0.24-0.74,0.11c-0.24,0.5-0.43,0.45-0.7,0.1
		c-0.15,0.15-0.3,0.31-0.51,0.51c0.19,2.32-0.06,4.75,0.3,7.16c-0.45,0-0.94,0-1.43,0c0.38-2.45,0.16-4.98,0.29-7.35
		c-0.26-0.13-0.47-0.28-0.7-0.33c-0.23-0.05-0.48-0.08-0.69,0.04c-0.32,0.19-0.59,0.26-0.77-0.26c-0.19,0.09-0.34,0.17-0.49,0.24
		c-0.01-0.03-0.01-0.07-0.02-0.1c0.07-0.1,0.15-0.18,0.2-0.3c0.06-0.16,0.09-0.34,0.13-0.51c-0.12,0.01-0.25-0.02-0.35,0.05
		c-0.6,0.43-0.8,0.34-1.09-0.55c-0.3,0.19-0.56,0.68-0.98,0.42c0.23-0.23,0.43-0.39,0.59-0.62c0.5-0.72,0.49-0.73,0.89,0.1
		c0.14-0.13,0.27-0.33,0.43-0.39c0.33-0.13,0.74-0.04,0.99-0.32c0.26-0.28,0.38-0.85,0.8-0.75
		C90.41,187.78,90.42,187.72,90.43,187.66z"/>
	<path d="M85.9,187.92c-1.68,0.68-3.36,1.27-4.69-1.35c0.08,0.79,0.28,1.05,1.72,2.48c-0.16-0.04-0.31-0.06-0.47-0.11
		c-0.16-0.05-0.32-0.1-0.46-0.2c-0.15-0.1-0.29-0.27-0.44-0.35c1.37,2.6,2.99,4.44,5.33,4.14c-0.52,0.2-0.91,0.95-1.53,0.67
		c-0.19-0.08-0.45,0.33-0.66,0.28c-0.69-0.16-1.37-0.41-2.04-0.68c-0.13-0.05-0.22-0.35-0.32-0.53c-0.19-0.34-0.4-0.66-0.56-1.03
		c-0.14-0.32-0.23-0.7-0.32-1.07c-0.05-0.22-0.07-0.46-0.16-0.68c0.2,3.65-0.16,7.38,0.61,10.98c-0.72,0-1.47,0-2.25,0
		c0.78-2.59,0.45-5.37,0.63-8.06c0.06-0.87,0.01-1.76,0.01-2.65c0,0-0.05-0.01-0.05,0c-0.09,0.82-0.49,1.35-0.78,1.98
		c-0.31,0.66-0.68,1.17-1.24,1.27c-0.3,0.06-0.59,0.22-0.88,0.34c-0.07,0.03-0.14,0.1-0.21,0.09c-0.81-0.14-1.63-0.28-2.44-0.43
		c0-0.06,0-0.12,0-0.17c0.28-0.12,0.57-0.26,0.85-0.35c1.11-0.38,2.16-1.03,3.1-2.01c0.49-0.5,0.94-1.07,1.41-1.61
		c0.42-0.48,0.38-1.16,0.32-1.95c-0.42,1.39-1.26,1.66-2.04,1.93c-0.79,0.27-1.61,0.35-2.44,0.39c1.3-0.47,2.29-1.68,3.29-3
		c-0.36,0.04-0.67,0.08-1.04,0.12c0.5-0.5,0.94-0.94,1.48-1.48c-0.68,0-1.21,0-1.84,0c0.61-0.43,1.15-0.71,1.63-1.15
		c0.48-0.45,1-0.93,1.06-1.96c-0.41,0.78-0.85,1.45-1.64,1.26c0.73-0.62,1.51-1.06,1.67-2.43c-0.04-0.05-0.09-0.1-0.13-0.15
		c-0.17,0.41-0.29,0.95-0.53,1.21c-0.48,0.52-0.91,1.3-1.58,1.25c-0.35-0.03-0.69-0.11-1.13-0.18c0.59-0.44,1.09-0.76,1.56-1.17
		c0.46-0.41,0.89-0.91,1.31-1.47c-0.53,0.5-1.06,0.63-1.71,0.22c0.71-0.26,1.35-0.5,1.83-1.25c-0.92-0.16-1.81-0.32-2.7-0.48
		c0-0.06,0-0.11-0.01-0.17c0.54-0.27,1.08-0.53,1.61-0.82c0.46-0.25,0.92-0.53,1.18-1.23c0.15-0.41,0.24-0.88,0.3-1.38
		c-0.57,1.14-1.24,1.86-2.27,1.6c0.85-0.8,1.75-1.43,2.28-2.74c-0.43,0.55-0.85,1.08-1.54,0.99c0.19-0.18,0.32-0.3,0.46-0.43
		c-0.57,0-1.12,0-1.67,0c1.03-0.95,2.26-1.37,2.74-3.28c-0.4,0.68-0.89,0.92-1.55,0.83c0.75-0.7,1.56-1.22,1.53-3
		c-0.62,1.52-1.41,1.98-2.45,1.42c0.94-0.57,1.98-0.94,2.45-2.5c-0.6,0.86-0.96,1.04-1.61,0.73c0.53-0.39,1.07-0.78,1.62-1.18
		c-0.01-0.05-0.03-0.1-0.04-0.15c-0.32,0.15-0.63,0.29-0.95,0.44c0.33-0.64,1.19-0.44,0.94-1.88c-0.35,1.29-1.04,1.48-1.78,1.5
		c0.57-0.68,1.13-1.36,1.7-2.04c-0.02-0.05-0.05-0.1-0.07-0.15c-0.2,0.06-0.4,0.13-0.67,0.21c0.37-0.5,0.67-0.91,0.95-1.29
		c0.33,0.4,0.67,0.82,0.98,1.21c-0.13,0-0.34,0-0.56,0c0.23,0.78,0.6,1.37,1.79,1.95c-0.38,0-0.77,0.11-1.13-0.03
		c-0.35-0.15-0.65-0.56-1.02-0.91c0.19,0.37,0.35,0.7,0.54,1.06c-0.11-0.04-0.2-0.07-0.29-0.11c0.13,0.54,0.13,0.54,1.08,1.39
		c-0.64,0.2-0.76,0.15-1.21-0.56c-0.02,0.54,0.42,1.37,1.07,1.8c0.52,0.34,1.07,0.56,1.62,0.98c-0.47,0.07-0.95,0.09-1.41,0.22
		c-0.6,0.17-0.83-0.64-1.32-1.11c0.12,1.54,0.92,1.72,1.52,2.31c-0.4,0-0.8,0-1.22,0c0.48,1.25,1.26,1.84,2.1,2.33
		c-0.73,0.29-1.38-0.03-1.98-0.71c-0.02,0.07-0.04,0.13-0.06,0.2c0.26,0.3,0.53,0.59,0.83,0.93c-0.2-0.05-0.38-0.09-0.57-0.13
		c-0.01,0.05-0.03,0.11-0.04,0.16c0.53,0.34,1.05,0.69,1.56,1.02c-0.78,0.45-1.7,0.09-2-0.97c-0.17,0.77,0.14,1.17,0.51,1.51
		c0.83,0.78,1.71,1.31,2.72,1.19c-0.81,0.87-1.76,0.85-2.72,1.1c0.4,0.19,0.8,0.39,1.16,0.56c-0.33,0.32-0.57,0.28-1.67-0.43
		c0.1,0.34,0.13,0.63,0.24,0.75c1.11,1.31,2.28,2.41,3.8,2.64c-0.81,0.56-1.57,0.42-2.3,0.09c-0.75-0.34-1.34-1.08-1.55-2.35
		c-0.07,0.99,0.3,1.81,0.97,2.25c-0.02,0.06-0.03,0.12-0.05,0.18c-0.32-0.21-0.63-0.41-0.96-0.62c0.19,0.8,0.63,1.36,1.12,1.75
		c0.5,0.4,1.05,0.64,1.61,1.07c-0.54,0.07-1.09,0.15-1.63,0.22c-0.01,0.04-0.01,0.09-0.02,0.13c0.32,0.1,0.64,0.2,0.93,0.29
		c-0.43,0.34-0.68,0.3-1.45-0.28C82.35,186.48,84.08,187.74,85.9,187.92z"/>
	<path class="st2" d="M-84.59-337.72c1.42-1.85,1.42-1.85,1.95-1.42C-83.32-338.64-83.95-338.18-84.59-337.72z"/>
	<path class="st2" d="M-29.19-329.64c-0.55-0.32-1.09-0.63-1.77-1.02c0.35-0.23,0.52-0.35,0.6-0.41c0.42,0.47,0.78,0.88,1.15,1.29
		C-29.21-329.73-29.2-329.68-29.19-329.64z"/>
	<path class="st2" d="M-103.68-325.86c-0.91,0.76-1.78,1.47-2.64,2.19c-0.07-0.07-0.14-0.15-0.22-0.22
		c0.64-0.87,1.27-1.74,1.96-2.67C-104.33-326.37-104.08-326.18-103.68-325.86z"/>
	<path d="M269.67,184.98c-1.66,0.74-3.31,1.39-4.74-1.18c0.11,0.79,0.32,1.04,1.8,2.42c-0.16-0.03-0.32-0.05-0.47-0.1
		c-0.16-0.04-0.32-0.09-0.47-0.18c-0.15-0.1-0.29-0.26-0.46-0.34c1.46,2.55,3.14,4.33,5.47,3.95c-0.52,0.22-0.88,0.98-1.51,0.73
		c-0.19-0.08-0.44,0.34-0.65,0.3c-0.69-0.14-1.38-0.36-2.07-0.61c-0.13-0.05-0.23-0.34-0.34-0.52c-0.2-0.33-0.42-0.64-0.6-1.01
		c-0.15-0.32-0.26-0.69-0.36-1.05c-0.06-0.22-0.08-0.46-0.19-0.67c0.33,3.65,0.1,7.38,0.99,10.95c-0.72,0.03-1.47,0.05-2.24,0.08
		c0.69-2.62,0.26-5.39,0.34-8.08c0.03-0.87-0.05-1.76-0.08-2.64c0,0-0.05-0.01-0.05,0c-0.06,0.82-0.44,1.37-0.71,2.01
		c-0.29,0.67-0.64,1.19-1.19,1.32c-0.3,0.07-0.58,0.24-0.87,0.37c-0.07,0.03-0.14,0.1-0.21,0.09c-0.82-0.11-1.64-0.23-2.45-0.34
		c0-0.06-0.01-0.12-0.01-0.17c0.28-0.13,0.56-0.28,0.84-0.38c1.1-0.42,2.12-1.11,3.03-2.12c0.47-0.52,0.9-1.1,1.35-1.66
		c0.4-0.5,0.34-1.17,0.25-1.96c-0.37,1.4-1.2,1.7-1.97,2c-0.78,0.3-1.6,0.41-2.42,0.47c1.28-0.52,2.23-1.76,3.18-3.11
		c-0.36,0.06-0.67,0.1-1.03,0.16c0.48-0.52,0.91-0.98,1.42-1.53c-0.68,0.02-1.21,0.04-1.84,0.07c0.6-0.45,1.13-0.75,1.59-1.21
		c0.47-0.46,0.97-0.97,0.99-2c-0.38,0.8-0.8,1.48-1.6,1.32c0.7-0.64,1.47-1.11,1.59-2.49c-0.05-0.05-0.09-0.1-0.14-0.14
		c-0.16,0.42-0.25,0.96-0.49,1.23c-0.47,0.54-0.86,1.33-1.54,1.31c-0.35-0.01-0.69-0.09-1.14-0.14c0.57-0.46,1.06-0.8,1.51-1.23
		c0.45-0.43,0.86-0.95,1.26-1.52c-0.51,0.51-1.04,0.67-1.7,0.28c0.7-0.28,1.33-0.55,1.78-1.31c-0.92-0.13-1.82-0.26-2.71-0.38
		c0-0.06-0.01-0.11-0.01-0.17c0.53-0.29,1.06-0.57,1.58-0.88c0.45-0.26,0.9-0.56,1.13-1.27c0.14-0.42,0.21-0.89,0.25-1.39
		c-0.53,1.16-1.17,1.9-2.21,1.68c0.82-0.83,1.69-1.49,2.18-2.82c-0.41,0.57-0.81,1.11-1.5,1.04c0.19-0.18,0.31-0.31,0.45-0.45
		c-0.57,0.02-1.12,0.04-1.67,0.06c1-0.98,2.21-1.45,2.62-3.37c-0.37,0.7-0.86,0.95-1.51,0.88c0.72-0.73,1.51-1.28,1.43-3.06
		c-0.57,1.54-1.34,2.03-2.4,1.5c0.92-0.61,1.94-1.01,2.36-2.59c-0.57,0.88-0.92,1.07-1.59,0.79c0.52-0.4,1.05-0.82,1.58-1.24
		c-0.02-0.05-0.03-0.1-0.05-0.14c-0.31,0.16-0.62,0.31-0.93,0.47c0.31-0.65,1.18-0.49,0.88-1.91c-0.31,1.3-0.98,1.52-1.72,1.56
		c0.54-0.7,1.08-1.4,1.63-2.1c-0.03-0.05-0.05-0.1-0.08-0.15c-0.2,0.07-0.4,0.14-0.66,0.23c0.35-0.51,0.64-0.94,0.9-1.32
		c0.34,0.39,0.7,0.8,1.03,1.17c-0.13,0-0.34,0.01-0.56,0.02c0.26,0.78,0.65,1.34,1.86,1.89c-0.38,0.01-0.77,0.14-1.13,0.01
		c-0.35-0.13-0.66-0.53-1.06-0.87c0.2,0.36,0.38,0.68,0.57,1.04c-0.11-0.04-0.2-0.07-0.3-0.1c0.15,0.53,0.15,0.53,1.13,1.35
		c-0.63,0.22-0.75,0.17-1.23-0.52c0,0.54,0.47,1.35,1.13,1.76c0.53,0.33,1.09,0.52,1.65,0.92c-0.47,0.09-0.94,0.12-1.4,0.27
		c-0.59,0.19-0.85-0.61-1.36-1.06c0.17,1.53,0.98,1.69,1.61,2.25c-0.4,0.01-0.8,0.03-1.22,0.04c0.52,1.24,1.32,1.8,2.18,2.25
		c-0.71,0.31-1.38,0.02-2.01-0.64c-0.02,0.07-0.03,0.13-0.05,0.2c0.27,0.29,0.55,0.57,0.86,0.9c-0.2-0.04-0.39-0.08-0.57-0.11
		c-0.01,0.05-0.02,0.11-0.03,0.16c0.54,0.33,1.08,0.65,1.6,0.96c-0.76,0.48-1.7,0.15-2.03-0.9c-0.14,0.77,0.19,1.17,0.56,1.5
		c0.86,0.75,1.76,1.25,2.76,1.1c-0.78,0.9-1.72,0.91-2.68,1.2c0.41,0.18,0.82,0.36,1.18,0.52c-0.32,0.33-0.56,0.3-1.69-0.37
		c0.12,0.34,0.15,0.62,0.27,0.74c1.15,1.27,2.37,2.33,3.89,2.5c-0.79,0.58-1.56,0.47-2.29,0.18c-0.77-0.31-1.37-1.03-1.63-2.3
		c-0.03,0.99,0.37,1.8,1.05,2.22c-0.01,0.06-0.03,0.12-0.04,0.18c-0.32-0.19-0.65-0.39-0.98-0.59c0.22,0.8,0.67,1.33,1.18,1.71
		c0.51,0.38,1.07,0.6,1.65,1.01c-0.54,0.09-1.08,0.18-1.62,0.28c0,0.04-0.01,0.09-0.01,0.13c0.32,0.09,0.65,0.18,0.94,0.26
		c-0.42,0.36-0.67,0.32-1.46-0.23C266.07,183.67,267.85,184.86,269.67,184.98z"/>
	<path d="M252.39,186.79c-0.64-0.21-1.28-0.43-1.93-0.64c0-0.04,0-0.08,0-0.12c0.52-0.1,1.05-0.2,1.58-0.3
		c-0.32-0.88-0.51-0.96-1-0.51c-0.1,0.09-0.22,0.13-0.34,0.14c-0.28,0.02-0.57-0.34-0.84,0.09c-0.02,0.03-0.22-0.13-0.27-0.26
		c-0.27-0.62-0.68-0.54-1.07-0.54c-0.04,0-0.09,0.04-0.11,0.09c-0.29,0.76-0.41,0.24-0.54-0.17c-0.12,0.09-0.22,0.16-0.4,0.29
		c0.15-0.39,0.25-0.67,0.32-0.86c0.21,0,0.36,0.01,0.52,0c0.44-0.04,0.87-0.11,1.31-0.12c0.11,0,0.22,0.19,0.32,0.11
		c0.2-0.03,0.4-0.05,0.6-0.1c0.14-0.03,0.27-0.11,0.4-0.16c-0.01-0.09-0.02-0.19-0.04-0.28c-0.23,0.05-0.47,0.11-0.7,0.13
		c-0.15,0.01-0.29-0.05-0.44-0.08c-0.19-0.05-0.38-0.1-0.56-0.15c0.18-0.22,0.34-0.42,0.45-0.57c0.33-0.05,0.63-0.09,1-0.15
		c-0.11-0.22-0.16-0.33-0.31-0.63c0.52,0.46,0.49-1.08,0.92-0.4c0.31-0.25,0.57-0.46,0.87-0.7c-0.43-0.11-0.82-0.21-1.21-0.3
		c-0.04-0.01-0.1-0.04-0.13-0.01c-0.4,0.5-0.7,0.12-0.94-0.25c-0.18,0.24-0.37,0.65-0.49,0.61c-0.28-0.1-0.53-0.41-0.74-0.78
		c-0.17-0.04-0.35-0.07-0.61-0.13c0.28-0.17,0.46-0.28,0.64-0.4c0.28,0.39,0.55,0.25,0.79-0.1c0.28-0.42,0.54-0.73,0.77-0.08
		c0.88-0.15,1.7-0.29,2.6-0.44c-0.28-0.26-0.44-0.43-0.62-0.56c-0.09-0.06-0.24-0.12-0.29-0.06c-0.44,0.64-0.67,0.04-0.94-0.35
		c-0.03-0.05-0.07-0.09-0.1-0.13c-0.12,0.08-0.24,0.17-0.49,0.34c0.17-0.53,0.27-0.86,0.36-1.13c-0.4,0.09-0.85,0.2-1.3,0.3
		c-0.16-0.21-0.32-0.42-0.48-0.62c0.01-0.03,0.02-0.05,0.03-0.08c0.14,0.09,0.28,0.19,0.42,0.28c0.26-0.71,0.29-0.71,0.7-0.13
		c0.08-0.83,0.5-0.61,0.82-0.6c0.42,0.02,0.85,0.02,1.25,0.21c0.3,0.14,0.55,0.11,0.82-0.03c0.06-0.03,0.11-0.12,0.21-0.23
		c-0.18-0.19-0.33-0.35-0.49-0.52c0.07-0.15,0.12-0.28,0.14-0.31c-0.6-0.27-1.23-0.56-1.88-0.86c0.13-0.2,0.28-0.45,0.44-0.69
		c-0.63,0.45-1.12-0.32-1.69-0.38c0.69-0.15,1.3-1.06,2.08-0.44c0.23-0.52,0.55-0.49,0.9-0.2c-0.12-0.13-0.25-0.26-0.43-0.46
		c0.11-0.1,0.21-0.19,0.26-0.23c-0.46-0.41-0.9-0.8-1.44-1.27c0.24-0.17,0.44-0.31,0.72-0.51c-0.49-0.13-0.9-0.24-1.3-0.34
		c0.43,0,0.58-0.88,1.17-0.67c0.43,0.15,0.98-0.47,1.47-0.74c-0.01-0.06-0.02-0.11-0.03-0.17c-0.39-0.19-0.77-0.39-1.2-0.6
		c0.13-0.17,0.23-0.29,0.27-0.34c-0.32-0.13-0.64-0.27-1.1-0.46c0.58-0.45,1.07-0.83,1.55-1.2c-0.01-0.07-0.03-0.15-0.04-0.22
		c-0.21-0.15-0.41-0.3-0.73-0.53c0.34-0.17,0.59-0.3,0.78-0.39c-0.21-0.19-0.46-0.42-0.7-0.65c-0.01-0.06-0.02-0.12-0.03-0.18
		c0.52-0.01,0.94-0.2,0.96-1.14c-0.14-0.07-0.34-0.18-0.64-0.34c0.45-0.24,0.8-0.42,1.23-0.64c-0.26-0.1-0.45-0.17-0.64-0.24
		c0.61-0.67,1.25-0.53,1.91-0.04c-0.03,0.06-0.09,0.17-0.16,0.31c0.19,0.22,0.38,0.44,0.67,0.77c-0.35,0-0.57,0-0.87,0
		c0.16,0.23,0.27,0.39,0.42,0.6c-0.09,0.1-0.18,0.19-0.32,0.33c0.41,0.15,0.79,0.28,1.16,0.42c-0.01,0.06-0.02,0.12-0.02,0.18
		c-0.2,0.13-0.4,0.27-0.71,0.48c0.3,0.23,0.51,0.39,0.81,0.62c-0.32,0.26-0.56,0.44-0.87,0.69c0.49,0.36,1,0.73,1.56,1.13
		c-0.43,0.11-0.81,0.2-1.19,0.3c-0.01,0.08-0.01,0.16-0.02,0.23c0.12,0.1,0.24,0.21,0.5,0.43c-0.48,0.19-0.85,0.33-1.3,0.5
		c0.18,0.16,0.3,0.26,0.45,0.39c-0.05,0.13-0.09,0.25-0.15,0.42c0.42,0,0.83-0.08,1.21,0.02c0.38,0.1,0.74,0.4,1.11,0.61
		c-0.45,0.56-1.02,0.38-1.57,0.3c-0.01,0.07-0.01,0.13-0.02,0.2c0.3,0.24,0.59,0.49,0.93,0.76c-0.06,0.42-0.36,0.48-0.62,0.52
		c-0.32,0.05-0.54,0.13-0.57,0.76c-0.01,0.24-0.31,0.44-0.52,0.71c0.25,0,0.65,0.17,0.76-0.03c0.46-0.84,0.72-0.24,0.89-0.01
		c0.6,0.09,1.04,0.16,1.57,0.25c-0.41,0.62-0.9,0.05-1.24,0.59c-0.09,0.14-0.44-0.13-0.75-0.24c-0.02,0.03-0.12,0.17-0.31,0.46
		c0.43,0.07,0.74,0.13,1.06,0.18c-0.11,0.59-0.73,0.97-1.1,0.65c-0.21-0.18-0.34-0.24-0.54,0.06c-0.08,0.13-0.31,0.07-0.46,0.05
		c-0.11-0.02-0.22-0.12-0.33-0.19c-0.02,0.06-0.04,0.12-0.06,0.18c0.45,0.38,0.89,0.76,1.34,1.13c0.05,0.04,0.12,0.07,0.15,0.13
		c0.23,0.57,0.45,0.34,0.66-0.03c0.19-0.33,0.36-0.36,0.61-0.07c0.14,0.16,0.38,0.09,0.57,0.14c0.36,0.09,0.72,0.2,1.11,0.41
		c-0.18,0.05-0.37,0.1-0.55,0.14c-0.21,0.05-0.54-0.02-0.61,0.16c-0.33,0.8-0.51,0.2-0.76-0.18c-0.12,0.22-0.23,0.42-0.38,0.68
		c0.32,0.07,0.57,0.12,0.9,0.19c-0.58,0.66-1.12,0.75-1.68,0.51c-0.22,0.2-0.43,0.4-0.64,0.59c0.25,0.59,0.68,0.42,1.04,0.39
		c0.27-0.02,0.58,0.22,0.85-0.2c0.07-0.11,0.37,0.03,0.53,0.16c0.38,0.31,0.72,0.62,1.15,0.16c0.09-0.09,0.34,0.2,0.6,0.37
		c0.03-0.05,0.13-0.24,0.29-0.52c0.07,0.24,0.13,0.43,0.15,0.52c-0.11,0.12-0.17,0.21-0.25,0.28c-0.12,0.11-0.24,0.29-0.37,0.3
		c-0.48,0.01-0.93,0.08-1.37,0.47c-0.12,0.11-0.36-0.07-0.64-0.14c-0.26,0.07-0.64,0.18-1.03,0.29c0.24,1,0.92,0.46,1.39,0.88
		c-0.23,0.22-0.36,0.34-0.55,0.52c0.65,0.4,1.2,0.75,1.7,1.07c-0.39,0.17-0.76,0.34-1.14,0.51c-0.01,0.07-0.01,0.15-0.02,0.22
		c0.15,0.05,0.36,0.23,0.44,0.14c0.42-0.47,0.68-0.15,0.9,0.3c0.13-0.25,0.3-0.76,0.39-0.72c0.37,0.13,0.72,0.43,1.08,0.67
		c-0.01,0.05-0.03,0.11-0.04,0.16c-0.31-0.13-0.63-0.26-0.94-0.39c-0.19,1.18-0.41,1.34-0.92,0.85c-0.25,0.02-0.5,0.05-0.74,0.04
		c-0.24-0.01-0.5-0.27-0.7,0.2c-0.04,0.08-0.21,0.11-0.29,0.06c-0.31-0.21-0.4,0.11-0.59,0.51c0.47-0.07,0.86-0.14,1.24-0.2
		c0.01,0.06,0.02,0.12,0.02,0.18c-0.29,0.21-0.57,0.43-0.86,0.64c-0.08,0.05-0.19,0.14-0.25,0.09c-0.39-0.31-0.76,0-1.01,0.04
		c0.26,0.33,0.59,0.74,0.89,1.11c0.47-0.18,0.93-0.41,1.4-0.54c0.38-0.1,0.58,0.34,0.71,0.82c0.21-0.24,0.4-0.52,0.63-0.68
		c0.1-0.07,0.28,0.11,0.4,0.27c-0.44-0.26-0.44,0.53-0.68,0.68c-0.05,0.03-0.06,0.2-0.1,0.3c-0.18,0.47-0.36,0.48-0.57,0.05
		c-0.07-0.14-0.16-0.41-0.21-0.39c-0.36,0.14-0.72,0.34-1.07,0.52c0.02,0.08,0.03,0.16,0.05,0.24c0.11-0.05,0.22-0.09,0.36-0.16
		c-0.09,0.28-0.17,0.56-0.28,0.8c-0.02,0.05-0.2,0.01-0.25-0.07c-0.29-0.47-0.57-0.24-0.74,0.11c-0.24,0.5-0.43,0.45-0.7,0.1
		c-0.15,0.15-0.3,0.31-0.51,0.51c0.19,2.32-0.06,4.75,0.3,7.16c-0.45,0-0.94,0-1.43,0c0.38-2.45,0.16-4.98,0.29-7.35
		c-0.26-0.13-0.47-0.28-0.7-0.33c-0.23-0.05-0.48-0.08-0.69,0.04c-0.32,0.19-0.59,0.26-0.77-0.26c-0.19,0.09-0.34,0.17-0.49,0.24
		c-0.01-0.03-0.01-0.07-0.02-0.1c0.07-0.1,0.15-0.18,0.2-0.3c0.06-0.16,0.09-0.34,0.13-0.51c-0.12,0.01-0.25-0.02-0.35,0.05
		c-0.6,0.43-0.8,0.34-1.09-0.55c-0.3,0.19-0.56,0.68-0.98,0.42c0.23-0.23,0.43-0.39,0.59-0.62c0.5-0.72,0.49-0.73,0.89,0.1
		c0.14-0.13,0.27-0.33,0.43-0.39c0.33-0.13,0.74-0.04,0.99-0.32c0.26-0.28,0.38-0.85,0.8-0.75
		C252.37,186.91,252.38,186.85,252.39,186.79z"/>
	<path d="M111.42,178.42c-0.2,0.12-0.47,0.28-0.76,0.45c0.6,0.61,1.21,1.24,1.82,1.87c0.28,0.29,0.58,0.55,0.83,0.89
		c0.23,0.31,0.42,0.51,0.74,0.34c0.26-0.13,0.45,0.05,0.48,0.54c0.02,0.39,0.08,0.78,0.13,1.27c-0.2-0.16-0.41-0.32-0.64-0.5
		c-0.05,0.16-0.13,0.38-0.15,0.44c-0.42,0.06-0.75,0.08-1.07,0.16c-0.28,0.07-0.82-0.39-0.88-0.8c-0.11,0.15-0.21,0.29-0.35,0.49
		c-0.39-0.71-0.77-1.38-1.16-2.1c-0.06,0.08-0.18,0.27-0.32,0.41c-0.14,0.13-0.3,0.21-0.45,0.31c-0.05-0.22-0.09-0.44-0.14-0.69
		c-0.1-0.02-0.23-0.06-0.4-0.1c0.11,2.65-0.02,5.32,0.48,7.95c-0.6,0-1.19,0-1.79,0c0.63-3.07,0.32-6.23,0.53-9.33
		c-0.05-0.02-0.1-0.04-0.15-0.06c-0.12,0.4-0.23,0.81-0.36,1.19c-0.06,0.17-0.16,0.32-0.25,0.45c-0.22,0.32-0.46,0.61-0.67,0.94
		c-0.23,0.38-1.24,0.46-1.52,0.01c-0.1,0.29-0.16,0.57-0.28,0.79c-0.07,0.13-0.25,0.27-0.34,0.22c-0.24-0.14-0.46-0.38-0.74-0.63
		c-0.14,0.17-0.25,1.26-0.68,0.05c-0.29,0.53-0.55,1-0.8,1.46c-0.33-0.57-0.26-0.77,0.02-1.48c0.37-0.93,0.9-1.37,1.52-1.71
		c0.14-0.08,0.26-0.29,0.38-0.46c0.32-0.45,0.68-0.68,1.13-0.65c0.49,0.04,0.81-0.54,0.81-1.32c0-0.28,0.08-0.56,0.12-0.84
		c-0.21,0-0.42,0-0.63,0c-0.02-0.07-0.05-0.14-0.07-0.2c-0.11,0.3-0.23,0.6-0.38,0.99c-0.23-0.2-0.48-0.41-0.76-0.66
		c-0.06,0.13-0.16,0.34-0.27,0.59c-0.12-0.17-0.21-0.3-0.35-0.5c-0.22,0.4-0.43,0.8-0.64,1.2c-0.3-0.4-0.27-0.7-0.04-1.25
		c0.48-1.18,1.39-1.4,2-2.28c0.04-0.06,0.11-0.12,0.16-0.11c0.92,0.23,1.17-1.17,1.77-1.73c0.01-0.01-0.01-0.07-0.03-0.21
		c-0.25,0.25-0.48,0.48-0.71,0.71c-0.03-0.02-0.05-0.04-0.08-0.07c0.18-0.44,0.35-0.88,0.51-1.27c-0.23-0.06-0.47-0.22-0.66-0.15
		c-0.13,0.05-0.21,0.42-0.36,0.74c-0.16-0.12-0.37-0.28-0.63-0.47c-0.04,0.08-0.12,0.25-0.22,0.45c-0.1-0.13-0.19-0.23-0.31-0.38
		c-0.18,0.34-0.36,0.68-0.54,1c-0.29-0.65-0.25-1.1,0.34-1.68c0.62-0.61,1.16-1.49,1.97-1.54c0.09-0.01,0.18-0.14,0.26-0.24
		c0.46-0.6,0.9-1.22,1.37-1.8c0.24-0.29,0.36-0.58,0.2-1.16c-0.19,0.35-0.36,0.66-0.53,0.96c-0.06,0.11-0.14,0.2-0.22,0.27
		c-0.3,0.23-0.62,0.42-0.91,0.67c-0.15,0.12-0.27,0.34-0.43,0.56c-0.35-0.93,0.47-1.33,0.55-2.08c-0.04-0.03-0.07-0.06-0.11-0.09
		c-0.08,0.19-0.15,0.38-0.25,0.63c-0.16-0.11-0.32-0.23-0.52-0.38c-0.26,0.22-0.57,0.49-0.9,0.77c-0.17-0.43-0.15-0.8,0.32-1.28
		c0.49-0.5,1.05-0.86,1.58-1.29c0.04-0.03,0.09-0.04,0.12-0.08c0.38-0.54,0.77-1.08,1.22-1.73c-0.34,0.21-0.6,0.37-0.88,0.54
		c-0.3-0.4-0.54-0.32-0.88,0.38c-0.14-0.63,0.14-0.93,0.36-1.26c0.23-0.34,0.47-0.65,0.7-0.97c-0.02-0.05-0.04-0.1-0.05-0.16
		c-0.16,0.13-0.32,0.26-0.48,0.38c-0.05,0.04-0.13,0.06-0.18,0.04c-0.39-0.2-0.7-0.04-0.91,0.54c-0.04-0.03-0.07-0.05-0.11-0.08
		c0.04-0.24,0.03-0.54,0.13-0.71c0.18-0.32,0.4-0.59,0.63-0.83c0.56-0.6,1.14-1.18,1.71-1.75c0.23-0.23,0.25-0.5,0.11-0.97
		c-0.29,0.93-0.81,1.14-1.33,1.38c-0.14,0.07-0.26,0.27-0.39,0.4c-0.08-0.66,0.21-1.18,0.92-1.86c-0.22,0.06-0.44,0.13-0.75,0.22
		c0.22-0.38,0.43-0.74,0.64-1.1c-0.01-0.06-0.02-0.13-0.03-0.19c-0.23,0.1-0.46,0.2-0.79,0.34c0.12-0.28,0.2-0.61,0.35-0.79
		c0.4-0.49,0.83-0.92,1.25-1.39c0.1-0.12,0.18-0.29,0.27-0.44c-0.02-0.07-0.05-0.13-0.07-0.2c-0.43,0.2-0.87,0.39-1.3,0.59
		c0.42-0.8,1.06-1.08,1.43-2.13c-0.48,0.45-0.84,0.79-1.28,1.2c0.19-1.12,0.87-1.51,1.18-2.4c-0.31,0.2-0.58,0.39-0.85,0.57
		c0.03-0.29,0.72-1.42,0.92-1.44c0.08-0.01,0.17,0.06,0.24,0.13c0.32,0.35,0.63,0.72,1.03,1.18c-0.27,0.03-0.43,0.04-0.64,0.07
		c0.24,0.42,0.46,0.8,0.72,1.26c-0.48,0.2-0.74-0.21-0.97-0.71c-0.03,0.06-0.07,0.13-0.1,0.19c0.52,0.72,1.04,1.44,1.56,2.16
		c-0.03,0.09-0.07,0.17-0.1,0.26c-0.61-0.07-1.02-0.88-1.66-1.2c0.1,0.28,0.15,0.58,0.27,0.74c0.42,0.53,0.86,1.01,1.29,1.52
		c0.14,0.16,0.25,0.37,0.46,0.69c-0.38,0-0.62,0-0.92,0c0.18,0.33,0.33,0.59,0.53,0.96c-0.23,0-0.35,0-0.47,0
		c0,0.04,0,0.09,0.01,0.11c0.11,0.19,0.22,0.36,0.33,0.55c0.09,0.16,0.17,0.32,0.26,0.48c-0.15,0.02-0.32,0.13-0.45,0.06
		c-0.22-0.12-0.41-0.36-0.62-0.53c-0.12-0.1-0.26-0.16-0.42-0.15c0.6,1.12,1.26,2.07,2.13,2.6c0.15,0.09,0.22,0.47,0.35,0.76
		c-0.8,0.13-1.52,0.26-1.94-0.97c-0.19,0.36-0.19,0.36,0.24,1.09c0.19,0.33,0.39,0.64,0.61,1c-0.05,0.4-0.05,0.4-0.62,0.28
		c0.29,1.32,1.13,1.71,1.77,2.4c0.53,0.56,0.58,0.45,0.65,1.1c-0.54,0-1.08,0-1.66,0c0.11,0.11,0.25,0.26,0.42,0.45
		c-0.01,0.12-0.03,0.31-0.06,0.55c-0.39-0.12-0.76-0.23-1.2-0.36c0.16,0.28,0.27,0.58,0.44,0.76c0.46,0.51,0.94,0.98,1.42,1.47
		c0.18,0.19,0.35,0.43,0.53,0.61c0.12,0.11,0.26,0.25,0.39,0.23c0.32-0.05,0.47,0.13,0.48,0.63c0.01,0.21,0.07,0.42,0.13,0.72
		c-0.16-0.1-0.3-0.18-0.37-0.23c-0.22,0.07-0.38,0.16-0.54,0.17c-0.3,0.01-0.6,0-0.89-0.04c-0.17-0.02-0.28-0.47-0.51-0.17
		c-0.08,0.11-0.21,0.15-0.38,0.26c-0.07-0.04-0.23-0.13-0.38-0.22c-0.02,0.03-0.03,0.06-0.05,0.09c0.14,0.24,0.26,0.54,0.42,0.72
		c0.56,0.61,1.14,1.18,1.71,1.77c0.17,0.18,0.34,0.36,0.5,0.56c0.22,0.27,0.39,0.65,0.76,0.44c0.26-0.14,0.38,0.2,0.39,0.61
		c0.01,0.29,0.07,0.58,0.12,0.97c-0.18-0.13-0.37-0.27-0.56-0.4c-0.04,0.11-0.1,0.29-0.15,0.42c-0.45-0.04-0.88-0.04-1.3-0.12
		C111.7,178.73,111.56,178.54,111.42,178.42z"/>
	<path d="M279.18,158.71c-0.11,0.07-0.18,0.13-0.35,0.24c0.17-0.46,0.29-0.8,0.44-1.2c-0.22-0.02-0.41-0.03-0.62-0.04
		c0.48-0.62,0.97-1.25,1.32-1.7c-0.09,0.86,0.73,1.01,1.19,1.62c-0.02,0.07-0.05,0.14-0.07,0.22c-0.24-0.02-0.49-0.04-0.76-0.06
		c-0.01,0.42,0.66,0.69,0.16,1.28c0.35,0.67,1.06,0.68,1.31,1.7c-0.28,0-0.47,0-0.77,0c0.14,0.18,0.21,0.3,0.29,0.38
		c0.31,0.26,0.64,0.46,0.93,0.76c0.12,0.12,0.16,0.44,0.23,0.67c-0.16,0.06-0.33,0.21-0.48,0.17c-0.34-0.1-0.67-0.3-1.01-0.44
		c-0.09-0.04-0.19-0.02-0.28-0.03c-0.02,0.07-0.04,0.13-0.06,0.2c0.5,0.46,1.01,0.92,1.51,1.37c0.26,0.23,0.57,0.39,0.79,0.69
		c0.14,0.19,0.17,0.59,0.25,0.9c-0.2,0.05-0.39,0.11-0.59,0.13c-0.19,0.02-0.38,0-0.56,0c0,0.09-0.01,0.18-0.01,0.27
		c0.19,0.09,0.4,0.15,0.58,0.27c0.38,0.26,0.78,0.5,1.13,0.84c0.31,0.3,0.34,0.76,0.14,1.13c-0.27,0-0.5,0.09-0.67-0.02
		c-0.24-0.16-0.42-0.36-0.54,0.29c0.24,0.08,0.47,0.1,0.68,0.23c0.39,0.24,0.78,0.49,1.13,0.84c0.39,0.41,0.38,0.82,0.16,1.22
		c-0.27,0.09-0.41,0.16-0.56,0.17c-0.11,0.01-0.25-0.02-0.31-0.12c-0.3-0.44-0.45-0.24-0.53,0.13c0.5,0.32,1.03,0.54,1.47,0.98
		c0.55,0.54,0.54,0.95,0.12,1.83c-0.18-0.37-0.37-0.56-0.51,0.07c-0.14-0.15-0.25-0.31-0.38-0.39c-0.11-0.07-0.32-0.11-0.34-0.06
		c-0.06,0.2-0.09,0.45-0.06,0.66c0.03,0.23,0.16,0.43,0.23,0.65c0.18,0.58,0.11,0.85-0.23,1.11c-0.18-0.13-0.32-0.24-0.47-0.34
		c-0.2-0.22-0.3-0.86-0.71-0.15c-0.05-0.24-0.08-0.41-0.13-0.65c-0.14,0.29,0.19,1-0.43,0.71c0.02,0.08,0.04,0.16,0.06,0.24
		c0.17,0.1,0.34,0.19,0.51,0.29c0.52,0.32,1.03,0.62,1.54,0.96c0.11,0.07,0.22,0.27,0.25,0.45c0.03,0.15-0.05,0.49-0.1,0.5
		c-0.23,0.04-0.47,0.01-0.71-0.01c-0.21-0.01-0.41-0.04-0.65-0.06c-0.46-0.21-0.97-0.44-1.48-0.68c-0.02,0.04-0.03,0.08-0.05,0.13
		c0.03,0.05,0.06,0.1,0.09,0.15c0.03,0.05,0.07,0.09,0.11,0.12c0.63,0.52,1.23,1.2,1.9,1.5c0.61,0.27,1.21,0.49,1.76,1.01
		c0.37,0.35,0.43,0.73,0.21,1.17c-0.24,0-0.44,0-0.64,0c0,0.07,0,0.13,0,0.2c-0.35-0.22-0.69-0.79-0.95-0.21
		c-0.85-0.37-1.64-0.71-2.43-1.05c-0.02,0.07-0.03,0.14-0.05,0.22c0.82,0.36,1.44,1.41,2.37,1.47c0.33,0.02,0.67,0.31,0.96,0.59
		c0.12,0.12,0.19,0.54,0.16,0.79c-0.04,0.26-0.31,0.1-0.38,0.15c-0.32,0.19-0.55-0.03-0.82-0.13c-0.1-0.04-0.25,0.22-0.36,0.33
		c-0.39-0.53-0.85-0.66-1.34-0.79c-0.49-0.13-0.97-0.41-1.53-0.66c0.14,3.11-0.05,6.22,0.49,9.29c-0.57,0-1.15,0-1.75,0
		c0.64-3.05,0.3-6.2,0.52-9.17c-0.33-0.1-0.58-0.26-0.81-0.21c-0.19,0.04-0.4,0.29-0.51,0.53c-0.34,0.74-1.02,1.11-1.48,0.7
		c-0.06,0.2-0.12,0.39-0.16,0.53c-0.34-0.16-0.65-0.3-1.06-0.49c-0.1,0.13-0.27,0.35-0.42,0.54c-0.15-0.42-0.07-0.89,0.39-1.19
		c0.49-0.33,1.02-0.54,1.53-0.82c0.09-0.05,0.17-0.14,0.26-0.21c0.28-0.26,0.56-0.5,0.82-0.78c0.28-0.29,0.54-0.62,0.84-0.98
		c-0.16-0.14-0.29-0.25-0.32-0.28c-0.53,0.55-0.98,1.06-1.46,1.51c-0.14,0.12-0.35,0.03-0.53,0.06c-0.17,0.03-0.34,0.09-0.49,0.3
		c-0.35-0.14-0.7-0.27-1.1-0.43c-0.12,0.2-0.28,0.48-0.48,0.84c-0.12-0.42-0.18-0.71,0.04-1.1c0.46-0.81,1.14-0.89,1.71-1.34
		c0.35-0.28,0.72-0.47,1.05-0.79c0.66-0.63,1.3-1.31,2-2.02c-0.24-0.05-0.4-0.08-0.57-0.11c-0.25,0.88-2.01,1.78-2.68,1.09
		c-0.13,0.19-0.26,0.39-0.39,0.58c-0.16-0.47-0.02-0.94,0.41-1.25c0.32-0.23,0.65-0.41,0.98-0.63c0.33-0.22,0.65-0.47,0.98-0.7
		c-0.03-0.09-0.05-0.18-0.08-0.26c-0.13,0.08-0.27,0.17-0.41,0.26c0-0.26,0.05-0.57-0.02-0.79c-0.03-0.11-0.29-0.05-0.48-0.07
		c-0.02,0.14-0.06,0.34-0.08,0.48c-0.31-0.08-0.58-0.16-0.89-0.24c-0.06,0.29-0.12,0.62-0.19,0.95c-0.33-0.64-0.29-1.11,0.16-1.88
		c-0.07-0.12-0.14-0.25-0.23-0.41c-0.09,0.11-0.17,0.21-0.27,0.32c-0.07-0.19-0.13-0.34-0.22-0.57c-0.17,0.4-0.33,0.77-0.48,1.13
		c-0.3-0.71-0.21-1.54,0.38-1.95c0.54-0.38,0.95-1.25,1.65-1.14c0.1,0.02,0.22-0.24,0.36-0.42c-0.23-0.11-0.38-0.17-0.55-0.25
		c-0.04,0.21-0.07,0.41-0.11,0.59c-0.36-0.2-0.68-0.38-1.04-0.59c-0.12,0.25-0.27,0.56-0.41,0.87c-0.3-0.66-0.08-1.24,0.37-1.71
		c0.46-0.48,1.03-0.71,1.55-1.06c0.2-0.14,0.38-0.31,0.2-0.8c-0.09,0.22-0.16,0.37-0.21,0.5c-0.28-0.14-0.55-0.28-0.85-0.43
		c-0.1,0.21-0.22,0.46-0.35,0.73c-0.15-0.73-0.02-1.27,0.42-1.61c0.4-0.31,0.84-0.53,1.24-0.86c0.19-0.15,0.32-0.44,0.45-0.78
		c-0.15,0.08-0.31,0.16-0.54,0.27c-0.23-0.11-0.58-0.59-0.83,0.25c-0.17-0.53-0.04-1.04,0.36-1.34c0.62-0.46,1.23-0.94,1.74-1.69
		c0.24-0.36,0.47-0.74,0.67-1.23c-0.33,0.3-0.63,0.68-0.98,0.87c-0.34,0.19-0.72,0.19-1.12,0.28c-0.1-0.34,0-0.58,0.52-1.04
		c0.31-0.28,0.61-0.58,0.88-1.02c-0.24,0-0.48,0-0.75,0C278,159.71,278.89,159.72,279.18,158.71z M277.99,174.32
		c0.31-0.35,0.63-0.7,0.96-1.08C278.68,172.93,278.68,172.93,277.99,174.32z"/>
</g>
<path d="M241.33,181.97c-0.2,0.12-0.47,0.28-0.76,0.45c0.6,0.61,1.21,1.24,1.82,1.87c0.28,0.29,0.58,0.55,0.83,0.89
	c0.23,0.31,0.42,0.51,0.74,0.34c0.26-0.13,0.45,0.05,0.48,0.54c0.02,0.39,0.08,0.78,0.13,1.27c-0.2-0.16-0.41-0.32-0.64-0.5
	c-0.05,0.16-0.13,0.38-0.15,0.44c-0.42,0.06-0.75,0.08-1.07,0.16c-0.28,0.07-0.82-0.39-0.88-0.8c-0.11,0.15-0.21,0.29-0.35,0.49
	c-0.39-0.71-0.77-1.38-1.16-2.1c-0.06,0.08-0.18,0.27-0.32,0.41c-0.14,0.13-0.3,0.21-0.45,0.31c-0.05-0.22-0.09-0.44-0.14-0.69
	c-0.1-0.02-0.23-0.06-0.4-0.1c0.11,2.65-0.02,5.32,0.48,7.95c-0.6,0-1.19,0-1.79,0c0.63-3.07,0.32-6.23,0.53-9.33
	c-0.05-0.02-0.1-0.04-0.15-0.06c-0.12,0.4-0.23,0.81-0.36,1.19c-0.06,0.17-0.16,0.32-0.25,0.45c-0.22,0.32-0.46,0.61-0.67,0.94
	c-0.23,0.38-1.24,0.46-1.52,0.01c-0.1,0.29-0.16,0.57-0.28,0.79c-0.07,0.13-0.25,0.27-0.34,0.22c-0.24-0.14-0.46-0.38-0.74-0.63
	c-0.14,0.17-0.25,1.26-0.68,0.05c-0.29,0.53-0.55,1-0.8,1.46c-0.33-0.57-0.26-0.77,0.02-1.48c0.37-0.93,0.9-1.37,1.52-1.71
	c0.14-0.08,0.26-0.29,0.38-0.46c0.32-0.45,0.68-0.68,1.13-0.65c0.49,0.04,0.81-0.54,0.81-1.32c0-0.28,0.08-0.56,0.12-0.84
	c-0.21,0-0.42,0-0.63,0c-0.02-0.07-0.05-0.14-0.07-0.2c-0.11,0.3-0.23,0.6-0.38,0.99c-0.23-0.2-0.48-0.41-0.76-0.66
	c-0.06,0.13-0.16,0.34-0.27,0.59c-0.12-0.17-0.21-0.3-0.35-0.5c-0.22,0.4-0.43,0.8-0.64,1.2c-0.3-0.4-0.27-0.7-0.04-1.25
	c0.48-1.18,1.39-1.4,2-2.28c0.04-0.06,0.11-0.12,0.16-0.11c0.92,0.23,1.17-1.17,1.77-1.73c0.01-0.01-0.01-0.07-0.03-0.21
	c-0.25,0.25-0.48,0.48-0.71,0.71c-0.03-0.02-0.05-0.04-0.08-0.07c0.18-0.44,0.35-0.88,0.51-1.27c-0.23-0.06-0.47-0.22-0.66-0.15
	c-0.13,0.05-0.21,0.42-0.36,0.74c-0.16-0.12-0.37-0.28-0.63-0.47c-0.04,0.08-0.12,0.25-0.22,0.45c-0.1-0.13-0.19-0.23-0.31-0.38
	c-0.18,0.34-0.36,0.68-0.54,1c-0.29-0.65-0.25-1.1,0.34-1.68c0.62-0.61,1.16-1.49,1.97-1.54c0.09-0.01,0.18-0.14,0.26-0.24
	c0.46-0.6,0.9-1.22,1.37-1.8c0.24-0.29,0.36-0.58,0.2-1.16c-0.19,0.35-0.36,0.66-0.53,0.96c-0.06,0.11-0.14,0.2-0.22,0.27
	c-0.3,0.23-0.62,0.42-0.91,0.67c-0.15,0.12-0.27,0.34-0.43,0.56c-0.35-0.93,0.47-1.33,0.55-2.08c-0.04-0.03-0.07-0.06-0.11-0.09
	c-0.08,0.19-0.15,0.38-0.25,0.63c-0.16-0.11-0.32-0.23-0.52-0.38c-0.26,0.22-0.57,0.49-0.9,0.77c-0.17-0.43-0.15-0.8,0.32-1.28
	c0.49-0.5,1.05-0.86,1.58-1.29c0.04-0.03,0.09-0.04,0.12-0.08c0.38-0.54,0.77-1.08,1.22-1.73c-0.34,0.21-0.6,0.37-0.88,0.54
	c-0.3-0.4-0.54-0.32-0.88,0.38c-0.14-0.63,0.14-0.93,0.36-1.26c0.23-0.34,0.47-0.65,0.7-0.97c-0.02-0.05-0.04-0.1-0.05-0.16
	c-0.16,0.13-0.32,0.26-0.48,0.38c-0.05,0.04-0.13,0.06-0.18,0.04c-0.39-0.2-0.7-0.04-0.91,0.54c-0.04-0.03-0.07-0.05-0.11-0.08
	c0.04-0.24,0.03-0.54,0.13-0.71c0.18-0.32,0.4-0.59,0.63-0.83c0.56-0.6,1.14-1.18,1.71-1.75c0.23-0.23,0.25-0.5,0.11-0.97
	c-0.29,0.93-0.81,1.14-1.33,1.38c-0.14,0.07-0.26,0.27-0.39,0.4c-0.08-0.66,0.21-1.18,0.92-1.86c-0.22,0.06-0.44,0.13-0.75,0.22
	c0.22-0.38,0.43-0.74,0.64-1.1c-0.01-0.06-0.02-0.13-0.03-0.19c-0.23,0.1-0.46,0.2-0.79,0.34c0.12-0.28,0.2-0.61,0.35-0.79
	c0.4-0.49,0.83-0.92,1.25-1.39c0.1-0.12,0.18-0.29,0.27-0.44c-0.02-0.07-0.05-0.13-0.07-0.2c-0.43,0.2-0.87,0.39-1.3,0.59
	c0.42-0.8,1.06-1.08,1.43-2.13c-0.48,0.45-0.84,0.79-1.28,1.2c0.19-1.12,0.87-1.51,1.18-2.4c-0.31,0.2-0.58,0.39-0.85,0.57
	c0.03-0.29,0.72-1.42,0.92-1.44c0.08-0.01,0.17,0.06,0.24,0.13c0.32,0.35,0.63,0.72,1.03,1.18c-0.27,0.03-0.43,0.04-0.64,0.07
	c0.24,0.42,0.46,0.8,0.72,1.26c-0.48,0.2-0.74-0.21-0.97-0.71c-0.03,0.06-0.07,0.13-0.1,0.19c0.52,0.72,1.04,1.44,1.56,2.16
	c-0.03,0.09-0.07,0.17-0.1,0.26c-0.61-0.07-1.02-0.88-1.66-1.2c0.1,0.28,0.15,0.58,0.27,0.74c0.42,0.53,0.86,1.01,1.29,1.52
	c0.14,0.16,0.25,0.37,0.46,0.69c-0.38,0-0.62,0-0.92,0c0.18,0.33,0.33,0.59,0.53,0.96c-0.23,0-0.35,0-0.47,0
	c0,0.04,0,0.09,0.01,0.11c0.11,0.19,0.22,0.36,0.33,0.55c0.09,0.16,0.17,0.32,0.26,0.48c-0.15,0.02-0.32,0.13-0.45,0.06
	c-0.22-0.12-0.41-0.36-0.62-0.53c-0.12-0.1-0.26-0.16-0.42-0.15c0.6,1.12,1.26,2.07,2.13,2.6c0.15,0.09,0.22,0.47,0.35,0.76
	c-0.8,0.13-1.52,0.26-1.94-0.97c-0.19,0.36-0.19,0.36,0.24,1.09c0.19,0.33,0.39,0.64,0.61,1c-0.05,0.4-0.05,0.4-0.62,0.28
	c0.29,1.32,1.13,1.71,1.77,2.4c0.53,0.56,0.58,0.45,0.65,1.1c-0.54,0-1.08,0-1.66,0c0.11,0.11,0.25,0.26,0.42,0.45
	c-0.01,0.12-0.03,0.31-0.06,0.55c-0.39-0.12-0.76-0.23-1.2-0.36c0.16,0.28,0.27,0.58,0.44,0.76c0.46,0.51,0.94,0.98,1.42,1.47
	c0.18,0.19,0.35,0.43,0.53,0.61c0.12,0.11,0.26,0.25,0.39,0.23c0.32-0.05,0.47,0.13,0.48,0.63c0.01,0.21,0.07,0.42,0.13,0.72
	c-0.16-0.1-0.3-0.18-0.37-0.23c-0.22,0.07-0.38,0.16-0.54,0.17c-0.3,0.01-0.6,0-0.89-0.04c-0.17-0.02-0.28-0.47-0.51-0.17
	c-0.08,0.11-0.21,0.15-0.38,0.26c-0.07-0.04-0.23-0.13-0.38-0.22c-0.02,0.03-0.03,0.06-0.05,0.09c0.14,0.24,0.26,0.54,0.42,0.72
	c0.56,0.61,1.14,1.18,1.71,1.77c0.17,0.18,0.34,0.36,0.5,0.56c0.22,0.27,0.39,0.65,0.76,0.44c0.26-0.14,0.38,0.2,0.39,0.61
	c0.01,0.29,0.07,0.58,0.12,0.97c-0.18-0.13-0.37-0.27-0.56-0.4c-0.04,0.11-0.1,0.29-0.15,0.42c-0.45-0.04-0.88-0.04-1.3-0.12
	C241.61,182.28,241.48,182.09,241.33,181.97z"/>
<g>
	<path d="M175.57,273.49c-2.77,0-5.39-0.02-8.01,0.04c-0.25,0.01-0.66,0.5-0.69,0.79c-0.15,1.4-0.19,2.82-0.28,4.28
		c-12.02,0-23.92,0-36.01,0c0.62-1.25,1.18-2.38,1.75-3.51c11.34-22.37,22.69-44.73,34-67.11c0.47-0.94,0.96-1.43,2.05-1.28
		c0.71,0.1,1.45,0.02,2.21,0.02c0,1.73,0,3.38,0,5.1c0.44,0,0.88,0,1.43,0c-0.08-1.69-0.16-3.32-0.24-5.09
		c1.18,0,2.27-0.05,3.34,0.04c0.28,0.02,0.59,0.46,0.75,0.78c5.04,9.91,10.06,19.83,15.09,29.74c6.81,13.43,13.62,26.85,20.43,40.28
		c0.15,0.29,0.27,0.58,0.44,0.98c-0.32,0.05-0.55,0.11-0.79,0.11c-11.38,0.01-22.76-0.01-34.15,0.03c-0.89,0-1.11-0.29-1.12-1.12
		C175.79,276.26,175.66,274.95,175.57,273.49z M167.91,255.95c-0.17,2.96-0.33,5.81-0.5,8.71c2.64,0,5.12,0,7.67,0
		c-0.17-2.94-0.34-5.8-0.51-8.71C172.32,255.95,170.19,255.95,167.91,255.95z M174.07,247.06c-0.16-2.82-0.31-5.57-0.5-8.32
		c-0.01-0.18-0.35-0.47-0.55-0.47c-1.33-0.04-2.67-0.02-4.11-0.02c-0.17,3-0.33,5.88-0.49,8.81
		C170.35,247.06,172.15,247.06,174.07,247.06z M169.43,229.4c1.22,0,2.38,0,3.63,0c-0.17-2.95-0.33-5.81-0.5-8.67
		c-0.95,0-1.76,0-2.63,0C169.76,223.63,169.6,226.46,169.43,229.4z"/>
	<path d="M166.38,207.15c-2.72,5.03-5.44,10.06-8.17,15.08c-9.91,18.27-19.81,36.54-29.72,54.8c-0.99,1.82-1.24,1.94-3.6,1.44
		c13.79-23.85,27.55-47.66,41.32-71.48C166.27,207.05,166.32,207.1,166.38,207.15z"/>
	<path d="M176.63,207.63c13.65,23.62,27.3,47.23,41.06,71.03c-0.96,0-1.73,0.09-2.46-0.04c-0.32-0.06-0.65-0.51-0.84-0.85
		c-4.55-8.36-9.08-16.72-13.62-25.09c-7.96-14.68-15.92-29.36-23.87-44.03c-0.16-0.3-0.3-0.62-0.45-0.93
		C176.52,207.68,176.58,207.65,176.63,207.63z"/>
	<path class="st2" d="M167.91,255.95c2.28,0,4.41,0,6.66,0c0.17,2.91,0.34,5.77,0.51,8.71c-2.55,0-5.03,0-7.67,0
		C167.58,261.76,167.75,258.91,167.91,255.95z"/>
	<path class="st2" d="M174.07,247.06c-1.92,0-3.72,0-5.65,0c0.16-2.94,0.33-5.82,0.49-8.81c1.44,0,2.77-0.02,4.11,0.02
		c0.2,0.01,0.54,0.3,0.55,0.47C173.76,241.49,173.91,244.23,174.07,247.06z"/>
	<path class="st2" d="M169.43,229.4c0.17-2.94,0.34-5.76,0.51-8.67c0.87,0,1.68,0,2.63,0c0.16,2.87,0.33,5.72,0.5,8.67
		C171.81,229.4,170.65,229.4,169.43,229.4z"/>
</g>
</svg>
